<?xml version="1.0" encoding="UTF-8" standalone="no"?>
<!DOCTYPE svg  PUBLIC '-//W3C//DTD SVG 1.1//EN'  'http://www.w3.org/Graphics/SVG/1.1/DTD/svg11.dtd'>
<svg xmlns="http://www.w3.org/2000/svg">
<defs>
<font id="SegoeUI-Semibold" horiz-adv-x="1422">
<font-face underline-position="-119" font-weight="600" descent="-410" panose-1="2 11 7 2 4 2 4 2 2 3" units-per-em="2048" unicode-range="U+000D-2666" bbox="-263 -482 2435 1908" x-height="1024" underline-thickness="119" font-family="SegoeUI" ascent="1638" cap-height="1434"/>
<missing-glyph horiz-adv-x="2048"/>
<glyph glyph-name=".notdef" horiz-adv-x="2048"/>
<glyph glyph-name="glyph1" horiz-adv-x="0"/>
<glyph glyph-name="uni000D" horiz-adv-x="2048" unicode=""/>
<glyph glyph-name="space" horiz-adv-x="563" unicode=" "/>
<glyph glyph-name="exclam" horiz-adv-x="622" unicode="!" d="M311 -20q-60 0 -102 38.5t-42 93.5q0 57 42 97t102 40q58 0 100.5 -40t42.5 -97q0 -55 -42.5 -93.5t-100.5 -38.5zM422 1434l-19 -1012h-190l-26 1012h235z"/>
<glyph glyph-name="quotedbl" horiz-adv-x="896" unicode='&quot;' d="M720 1442v-447h-184v447h184zM359 1442v-447h-182v447h182z"/>
<glyph glyph-name="numbersign" horiz-adv-x="1211" unicode="#" d="M754 909h-244l-60 -276h245zM1170 1049l-31 -140h-227l-58 -276h248l-35 -140h-242l-82 -370h-159l80 370h-242l-78 -370h-159l78 370h-229l28 140h232l55 276h-244l29 140h244l80 385h161l-79 -385h242l82 385h158l-80 -385h228z"/>
<glyph glyph-name="dollar" horiz-adv-x="1137" unicode="$" d="M642 575v-385q170 36 170 177q0 118 -170 208zM519 852v399q-75 -15 -119 -64t-44 -119q0 -74 36 -121t127 -95zM642 8v-217h-123v209q-222 0 -361 86v223q61 -53 165.5 -89t195.5 -36v445q-236 109 -305.5 201t-69.5 218q0 149 106 257.5t269 130.5v180h123v-176 q210 -6 290 -56v-214q-109 80 -290 86v-461q220 -102 301 -198t81 -217q0 -147 -101 -246t-281 -126z"/>
<glyph glyph-name="percent" horiz-adv-x="1721" unicode="%" d="M1272 579q-82 0 -129.5 -63t-47.5 -173q0 -108 46.5 -168t127.5 -60t127 62.5t46 173.5q0 108 -45.5 168t-124.5 60zM1258 -22q-152 0 -242 97.5t-90 260.5q0 178 95.5 280.5t257.5 102.5q157 0 243.5 -95t86.5 -267t-97 -275.5t-254 -103.5zM1387 1434l-920 -1444h-143 l919 1444h144zM430 1315q-82 0 -129.5 -63t-47.5 -173q0 -108 46.5 -168t127.5 -60t127 62.5t46 173.5q0 108 -45.5 168t-124.5 60zM416 714q-152 0 -242 97.5t-90 260.5q0 178 95.5 280.5t257.5 102.5q157 0 243.5 -95t86.5 -267t-97 -275.5t-254 -103.5z"/>
<glyph glyph-name="ampersand" horiz-adv-x="1465" unicode="&amp;" d="M907 268q-117 121 -366 390q-110 -57 -158.5 -122t-48.5 -152q0 -53 19.5 -95.5t53.5 -72.5t80.5 -46t100.5 -16q188 0 319 114zM834 1133q0 33 -12.5 62t-33.5 50.5t-49 34t-60 12.5q-42 0 -76.5 -12.5t-59 -36t-38 -55.5t-13.5 -71q0 -92 131 -238q211 108 211 254z M1159 -1l-131 139q-43 -38 -95.5 -68.5t-111 -51.5t-121.5 -32t-127 -11q-108 0 -195 28t-148.5 79.5t-95 123.5t-33.5 160q0 247 328 416q-151 187 -151 332q0 75 29.5 138t82.5 108.5t126.5 71.5t160.5 26q83 0 150.5 -23t115.5 -64t74 -97.5t26 -122.5 q0 -65 -16.5 -117.5t-53 -98.5t-96 -88t-145.5 -84q79 -85 159.5 -169t163.5 -169q21 32 38.5 72t30 84t19.5 91t7 92h203q0 -275 -174 -481q45 -48 113.5 -118t161.5 -166h-295z"/>
<glyph glyph-name="quotesingle" horiz-adv-x="529" unicode="&apos;" d="M356 1442v-447h-183v447h183z"/>
<glyph glyph-name="asterisk" horiz-adv-x="889" unicode="*" d="M818 1081l-274 -47l192 -229l-142 -98l-148 260l-148 -260l-143 98l193 229l-275 47l57 160l257 -103l-32 296h182l-32 -296l257 103z"/>
<glyph glyph-name="plus" d="M1190 510h-395v-395h-165v395h-395v165h395v396h165v-396h395v-165z" unicode="+"/>
<glyph glyph-name="comma" horiz-adv-x="494" unicode="," d="M368 239l-155 -499h-174l110 499h219z"/>
<glyph glyph-name="hyphen" horiz-adv-x="823" unicode="-" d="M690 474h-546v171h546v-171z"/>
<glyph glyph-name="hyphen" horiz-adv-x="823" unicode="‐" d="M690 474h-546v171h546v-171z"/>
<glyph glyph-name="period" horiz-adv-x="494" unicode="." d="M247 -22q-60 0 -102 39.5t-42 94.5q0 56 42 96t102 40q61 0 103.5 -40t42.5 -96q0 -55 -42.5 -94.5t-103.5 -39.5z"/>
<glyph glyph-name="slash" horiz-adv-x="847" unicode="/" d="M867 1434l-693 -1672h-211l690 1672h214z"/>
<glyph glyph-name="zero" horiz-adv-x="1137" unicode="0" d="M576 1273q-261 0 -261 -575q0 -538 256 -538q252 0 252 547q0 566 -247 566zM553 -24q-224 0 -349.5 183t-125.5 529q0 380 131 575t378 195q473 0 473 -735q0 -364 -133.5 -555.5t-373.5 -191.5z"/>
<glyph glyph-name="one" horiz-adv-x="824" unicode="1" d="M615 1466v-1466h-232v1182q-63 -45 -135.5 -76.5t-165.5 -55.5v198q58 19 112 40t106.5 47t106 58t110.5 73h98z"/>
<glyph glyph-name="two" horiz-adv-x="1137" unicode="2" d="M998 0h-900v111q0 68 19 127.5t51 112t75 99t92 90t100 84t100 81.5q46 39 84 76.5t65 77.5t42 84.5t15 96.5q0 57 -17.5 99.5t-49 71t-74.5 43t-94 14.5q-88 0 -179 -41t-175 -123v223q44 33 89 57.5t93 41t101 24.5t113 8q97 0 176 -25.5t135 -75t86.5 -123.5 t30.5 -170q0 -87 -21.5 -156.5t-61 -129.5t-95.5 -114t-125 -111q-58 -47 -115.5 -91.5t-103.5 -87t-74.5 -85t-28.5 -85.5v-5h647v-199z"/>
<glyph glyph-name="three" horiz-adv-x="1137" unicode="3" d="M123 53v218q140 -111 316 -111q143 0 228.5 65t85.5 176q0 244 -373 244h-111v186h106q331 0 331 230q0 212 -258 212q-144 0 -271 -103v206q146 82 345 82q191 0 306 -96t115 -246q0 -283 -288 -364v-4q155 -15 245 -108.5t90 -233.5q0 -193 -145 -311.5t-382 -118.5 q-213 0 -340 77z"/>
<glyph glyph-name="four" horiz-adv-x="1180" unicode="4" d="M701 508v602q-109 -196 -215.5 -342t-199.5 -260h415zM926 1434v-926h213v-193h-213v-315h-225v315h-649v195q88 99 180.5 214.5t178 236t158.5 241.5t123 232h234z"/>
<glyph glyph-name="five" horiz-adv-x="1137" unicode="5" d="M155 33v223q141 -95 286 -95q146 0 235 74.5t89 198.5q0 122 -90.5 190t-259.5 68q-58 0 -235 -12l51 754h706v-198h-513l-24 -359q69 4 125 4q228 0 352.5 -117t124.5 -320q0 -213 -142.5 -341.5t-391.5 -128.5q-210 0 -313 59z"/>
<glyph glyph-name="six" horiz-adv-x="1143" unicode="6" d="M831 442q0 62 -14.5 113t-44 87.5t-74 56.5t-104.5 20t-105.5 -21.5t-76.5 -56.5t-46.5 -80t-15.5 -92q0 -51 14.5 -104.5t44.5 -97.5t76.5 -72.5t110.5 -28.5q57 0 101 21t73.5 58t45 87.5t15.5 109.5zM1065 461q0 -108 -35.5 -197t-98.5 -153.5t-149.5 -100 t-187.5 -35.5q-108 0 -198.5 42t-156 125t-101.5 206.5t-36 286.5q0 199 47.5 353t130.5 258t195 158t242 54q81 0 147.5 -11t106.5 -30v-209q-51 26 -109 44t-133 18q-84 0 -155 -34t-122.5 -99.5t-81 -162t-30.5 -222.5h6q46 71 124.5 112t184.5 41q94 0 169.5 -30.5 t129 -88t82.5 -140t29 -185.5z"/>
<glyph glyph-name="seven" horiz-adv-x="1098" unicode="7" d="M1028 1318q-90 -165 -170 -326.5t-145 -324.5t-113 -328.5t-74 -338.5h-243q24 154 68.5 307.5t104.5 307t134.5 308.5t158.5 313h-679v198h958v-116z"/>
<glyph glyph-name="eight" horiz-adv-x="1137" unicode="8" d="M366 1068q0 -45 16 -83.5t43 -67t63.5 -44.5t78.5 -16t78.5 16.5t64 45t43.5 67t16 82.5q0 45 -15.5 84t-42.5 67t-64 44t-80 16q-45 0 -82 -16.5t-63.5 -45.5t-41 -67.5t-14.5 -81.5zM317 420q0 -61 18 -110t51 -83t79.5 -52t103.5 -18q55 0 101 18.5t79.5 53t52.5 83 t19 108.5q0 55 -18 103.5t-51 84.5t-79.5 57t-103.5 21q-54 0 -100.5 -19.5t-80 -55t-52.5 -84.5t-19 -107zM91 400q0 62 15.5 120t46.5 107t78 88t110 63q-93 52 -148 133.5t-55 180.5q0 79 32.5 146t90 116t135.5 76.5t170 27.5q93 0 171.5 -28t136 -77t89.5 -116t32 -145 q0 -99 -55 -180.5t-146 -133.5q62 -24 109.5 -62.5t79.5 -87.5t48 -107t16 -121q0 -94 -35 -172t-98 -133.5t-151 -86.5t-194 -31q-105 0 -192.5 31t-151 86.5t-99 133.5t-35.5 172z"/>
<glyph glyph-name="nine" horiz-adv-x="1143" unicode="9" d="M805 948q0 72 -18.5 131t-51.5 101t-78.5 65t-99.5 23q-48 0 -91.5 -19.5t-76 -55.5t-51.5 -87t-19 -113q0 -68 18.5 -120t51.5 -87.5t79.5 -54t102.5 -18.5q50 0 92.5 18.5t74 50t49.5 74.5t18 92zM1047 795q0 -215 -46.5 -370t-128 -255t-191 -147.5t-235.5 -47.5 q-41 0 -82.5 5t-79 13t-68 17.5t-50.5 18.5v209q21 -13 52 -26.5t67.5 -24t76 -17t76.5 -6.5q85 0 154.5 33t118.5 98t75.5 161.5t26.5 223.5h-4q-18 -32 -47.5 -60.5t-67.5 -50t-84.5 -34.5t-99.5 -13q-90 0 -167.5 31.5t-134.5 89.5t-89.5 141t-32.5 185q0 112 37 202.5 t102 154t153 98t191 34.5q97 0 183.5 -36.5t152 -116t104 -205.5t38.5 -305z"/>
<glyph glyph-name="colon" horiz-adv-x="494" unicode=":" d="M247 769q-60 0 -102 39.5t-42 94.5q0 56 42 96t102 40q61 0 103.5 -40t42.5 -96q0 -55 -42.5 -94.5t-103.5 -39.5zM247 -22q-60 0 -102 39.5t-42 94.5q0 56 42 96t102 40q61 0 103.5 -40t42.5 -96q0 -55 -42.5 -94.5t-103.5 -39.5z"/>
<glyph glyph-name="semicolon" horiz-adv-x="494" unicode=";" d="M368 239l-152 -503h-177l109 503h220zM247 771q-59 0 -99.5 40.5t-40.5 96.5t40.5 95t99.5 39q57 0 98 -39t41 -95t-41 -96.5t-98 -40.5z"/>
<glyph glyph-name="less" d="M1159 98l-893 429v106l893 466v-190l-653 -324v-4l653 -294v-189z" unicode="&lt;"/>
<glyph glyph-name="equal" d="M1190 295h-955v164h955v-164zM1190 724h-955v165h955v-165z" unicode="="/>
<glyph glyph-name="greater" d="M1159 533l-893 -429v189l654 291v6l-654 324v190l893 -465v-106z" unicode="&gt;"/>
<glyph glyph-name="question" horiz-adv-x="909" unicode="?" d="M417 -18q-57 0 -101 39q-42 38 -42 94q0 57 42 94q43 40 101 40q57 0 100 -40q42 -37 42 -94q0 -56 -42 -94q-44 -39 -100 -39zM303 405q-9 25 -16 65t-7 79q0 61 24.5 110.5t61 92.5t79 83t79 78t61 80t24.5 92q0 45 -18 78.5t-49.5 56t-72 33.5t-86.5 11 q-149 0 -284 -133v231q164 96 340 96q81 0 153 -21t126 -62t85 -102t31 -142q0 -77 -26 -137t-65.5 -110.5t-85 -89.5t-85 -78t-65.5 -81t-26 -93q0 -43 11 -78t22 -59h-211z"/>
<glyph glyph-name="at" horiz-adv-x="1955" unicode="@" d="M988 934q-110 0 -177.5 -108t-67.5 -269q0 -108 45.5 -170.5t121.5 -62.5q110 0 174 113.5t64 300.5q0 196 -160 196zM1147 397h-5q-72 -215 -282 -215q-134 0 -216 100.5t-82 270.5q0 225 112.5 374t296.5 149q70 0 125 -38.5t71 -92.5h3q3 28 15 115h166 q-47 -528 -47 -538q0 -198 103 -198q94 0 156 110.5t62 286.5q0 260 -167.5 424.5t-464.5 164.5q-285 0 -472 -199t-187 -498q0 -295 180 -476t485 -181q240 0 411 82v-154q-175 -74 -437 -74q-368 0 -593 220t-225 576q0 366 238 607t608 241q347 0 574.5 -202t227.5 -527 q0 -238 -123.5 -390.5t-301.5 -152.5q-230 0 -231 215z"/>
<glyph glyph-name="A" horiz-adv-x="1375" unicode="A" d="M902 559l-199 572q-9 28 -19 90h-4q-9 -57 -20 -90l-197 -572h439zM1355 0h-261l-129 365h-564l-124 -365h-260l537 1434h268z"/>
<glyph glyph-name="B" horiz-adv-x="1237" unicode="B" d="M414 644v-454h203q133 0 205.5 61.5t72.5 169.5q0 223 -309 223h-172zM414 1243v-408h154q124 0 194.5 58.5t70.5 165.5q0 184 -246 184h-173zM177 0v1434h455q208 0 329.5 -91t121.5 -237q0 -122 -69 -212t-191 -128v-4q148 -17 236.5 -109.5t88.5 -240.5 q0 -184 -145 -298t-366 -114h-460z"/>
<glyph glyph-name="C" horiz-adv-x="1272" unicode="C" d="M1177 60q-162 -84 -403 -84q-312 0 -500 197t-188 517q0 344 211.5 556t534.5 212q208 0 345 -59v-236q-145 86 -320 86q-233 0 -377.5 -149t-144.5 -398q0 -237 135 -377.5t355 -140.5q203 0 352 96v-220z"/>
<glyph glyph-name="D" horiz-adv-x="1469" unicode="D" d="M414 1232v-1031h190q251 0 390.5 138t139.5 390q0 503 -521 503h-199zM177 0v1434h414q793 0 793 -699q0 -332 -220 -533.5t-590 -201.5h-397z"/>
<glyph glyph-name="E" horiz-adv-x="1060" unicode="E" d="M982 0h-805v1434h773v-202h-535v-406h493v-201h-493v-424h567v-201z"/>
<glyph glyph-name="F" horiz-adv-x="1029" unicode="F" d="M951 1232h-536v-431h494v-201h-494v-600h-238v1434h774v-202z"/>
<glyph glyph-name="G" horiz-adv-x="1428" unicode="G" d="M1296 98q-224 -122 -499 -122q-318 0 -515 198t-197 524q0 333 215.5 546.5t547.5 213.5q239 0 402 -70v-245q-165 110 -393 110q-229 0 -375.5 -151t-146.5 -391q0 -247 126 -388.5t342 -141.5q148 0 256 57v341h-302v200h539v-681z"/>
<glyph glyph-name="H" horiz-adv-x="1506" unicode="H" d="M1329 0h-239v622h-675v-622h-238v1434h238v-603h675v603h239v-1434z"/>
<glyph glyph-name="I" horiz-adv-x="597" unicode="I" d="M421 0h-245v1434h245v-1434z"/>
<glyph glyph-name="J" horiz-adv-x="812" unicode="J" d="M648 514q0 -255 -126 -396.5t-336 -141.5q-98 0 -161 23v224q57 -39 147 -39q238 0 238 368v882h238v-920z"/>
<glyph glyph-name="K" horiz-adv-x="1251" unicode="K" d="M1262 0h-310l-499 656q-28 37 -34 50h-4v-706h-238v1434h238v-674h4q12 22 34 49l481 625h285l-563 -688z"/>
<glyph glyph-name="L" horiz-adv-x="1001" unicode="L" d="M971 0h-794v1434h238v-1233h556v-201z"/>
<glyph glyph-name="M" horiz-adv-x="1893" unicode="M" d="M1717 0h-236v928q0 114 14 279h-4q-22 -94 -39 -135l-428 -1072h-164l-429 1064q-18 47 -38 143h-4q8 -86 8 -281v-926h-220v1434h335l377 -955q43 -110 56 -164h5q37 113 60 168l384 951h323v-1434z"/>
<glyph glyph-name="N" horiz-adv-x="1571" unicode="N" d="M1393 0h-260l-685 1054q-26 40 -43 83h-6q8 -46 8 -197v-940h-230v1434h277l662 -1029q42 -64 54 -88h4q-10 57 -10 193v924h229v-1434z"/>
<glyph glyph-name="O" horiz-adv-x="1548" unicode="O" d="M779 1249q-197 0 -320.5 -147t-123.5 -387q0 -239 120 -385t314 -146q206 0 325 139t119 389q0 257 -115.5 397t-318.5 140zM768 -24q-310 0 -496.5 201t-186.5 523q0 346 190 552t516 206q302 0 486.5 -200t184.5 -523q0 -351 -189 -555t-505 -204z"/>
<glyph glyph-name="P" horiz-adv-x="1197" unicode="P" d="M414 1238v-524h154q153 0 233 71t80 200q0 253 -294 253h-173zM414 520v-520h-237v1434h435q247 0 383 -115t136 -324t-142 -342t-384 -133h-191z"/>
<glyph glyph-name="Q" horiz-adv-x="1548" unicode="Q" d="M779 1249q-98 0 -179.5 -38.5t-140.5 -109t-91.5 -168.5t-32.5 -218q0 -119 31.5 -217t88.5 -167.5t137 -108t177 -38.5q103 0 185 36t139.5 103.5t88.5 165.5t31 223q0 128 -30 228t-86 168.5t-136.5 104.5t-181.5 36zM768 -24q-155 0 -281 53t-215 148.5t-138 228.5 t-49 294q0 172 49.5 312t141 239t222.5 153t293 54q150 0 274 -53t212 -148.5t136.5 -228.5t48.5 -293q0 -212 -71 -371.5t-200 -256.5l416 -300h-362l-256 199q-51 -14 -106 -22t-115 -8z"/>
<glyph glyph-name="R" horiz-adv-x="1275" unicode="R" d="M414 1241v-466h198q55 0 101.5 17t80.5 49t53 78t19 103q0 103 -65 161t-187 58h-200zM1285 0h-278l-229 384q-31 53 -60.5 90.5t-60 61.5t-66.5 35t-81 11h-96v-582h-237v1434h472q101 0 186 -24t148 -72.5t98.5 -121t35.5 -169.5q0 -76 -22.5 -139.5t-64 -113 t-100 -84.5t-131.5 -54v-4q39 -22 68 -48.5t55 -54.5t51.5 -63.5t56.5 -82.5z"/>
<glyph glyph-name="S" horiz-adv-x="1115" unicode="S" d="M111 57v245q33 -30 78.5 -54t96.5 -40.5t102 -25.5t94 -9q150 0 223.5 50t73.5 145q0 51 -24.5 88.5t-68.5 68.5t-103.5 59.5t-127.5 59.5q-73 39 -136 79t-109.5 88.5t-73 109.5t-26.5 143q0 101 45.5 175.5t120 123t169.5 72t194 23.5q225 0 328 -51v-235 q-122 88 -314 88q-53 0 -105.5 -10t-94 -33t-67.5 -59t-26 -87q0 -48 20 -83t58.5 -64t94 -56.5t128.5 -59.5q75 -39 141.5 -82t117 -95t80 -115.5t29.5 -144.5q0 -109 -44 -184t-118.5 -122t-171.5 -68t-205 -21q-36 0 -88.5 5.5t-107.5 16t-104 25.5t-79 34z"/>
<glyph glyph-name="T" horiz-adv-x="1130" unicode="T" d="M1097 1232h-412v-1232h-238v1232h-411v202h1061v-202z"/>
<glyph glyph-name="U" horiz-adv-x="1440" unicode="U" d="M1280 580q0 -604 -572 -604q-548 0 -548 581v877h238v-828q0 -422 328 -422q316 0 316 407v843h238v-854z"/>
<glyph glyph-name="V" horiz-adv-x="1314" unicode="V" d="M1301 1434l-515 -1434h-266l-506 1434h260l354 -1088q17 -52 26 -121h4q7 57 29 123l362 1086h252z"/>
<glyph glyph-name="W" horiz-adv-x="1978" unicode="W" d="M1956 1434l-393 -1434h-269l-273 1003q-17 64 -21 140h-4q-5 -71 -24 -138l-274 -1005h-275l-401 1434h261l260 -1050q16 -66 20 -138h5q4 51 28 138l294 1050h245l272 -1058q14 -54 21 -128h4q3 50 23 132l255 1054h246z"/>
<glyph glyph-name="X" horiz-adv-x="1268" unicode="X" d="M1249 0h-285l-294 526q-13 24 -29 68h-4q-9 -22 -30 -68l-303 -526h-287l470 721l-432 713h291l259 -484q25 -48 45 -96h3q29 63 50 100l269 480h268l-442 -711z"/>
<glyph glyph-name="Y" horiz-adv-x="1182" unicode="Y" d="M1176 1434l-470 -913v-521h-238v516l-458 918h271l282 -615q5 -11 30 -83h3q9 32 33 83l295 615h252z"/>
<glyph glyph-name="Z" horiz-adv-x="1202" unicode="Z" d="M1155 1330l-786 -1129h776v-201h-1109v109l789 1123h-728v202h1058v-104z"/>
<glyph glyph-name="bracketleft" horiz-adv-x="680" unicode="[" d="M621 -326h-413v1760h413v-156h-216v-1448h216v-156z"/>
<glyph glyph-name="backslash" horiz-adv-x="829" unicode="\" d="M869 -240h-206l-676 1674h210z"/>
<glyph glyph-name="bracketright" horiz-adv-x="680" unicode="]" d="M474 -326h-413v156h216v1448h-216v156h413v-1760z"/>
<glyph glyph-name="asciicircum" d="M1208 618h-192l-312 604h-6l-291 -604h-189l425 840h109z" unicode="^"/>
<glyph glyph-name="underscore" horiz-adv-x="850" unicode="_" d="M850 -297h-850v119h850v-119z"/>
<glyph glyph-name="grave" horiz-adv-x="591" unicode="`" d="M527 1204h-173l-262 328h214z"/>
<glyph glyph-name="a" horiz-adv-x="1069" unicode="a" d="M713 503l-215 -30q-100 -13 -150.5 -48.5t-50.5 -124.5q0 -65 46.5 -106.5t124.5 -41.5q106 0 175.5 74.5t69.5 187.5v89zM937 0h-225v160h-4q-106 -184 -311 -184q-151 0 -236.5 82t-85.5 217q0 290 334 338l304 43q0 219 -208 219q-183 0 -330 -126v203q162 96 374 96 q388 0 388 -382v-666z"/>
<glyph glyph-name="b" horiz-adv-x="1234" unicode="b" d="M381 555v-127q0 -112 71.5 -190t181.5 -78q129 0 202.5 100.5t73.5 280.5q0 151 -68.5 236.5t-185.5 85.5q-124 0 -199.5 -88t-75.5 -220zM387 148h-4v-148h-232v1516h232v-672h4q119 204 348 204q194 0 303.5 -137.5t109.5 -368.5q0 -257 -123 -411.5t-336 -154.5 q-200 0 -302 172z"/>
<glyph glyph-name="c" horiz-adv-x="963" unicode="c" d="M884 47q-123 -71 -291 -71q-228 0 -368 142.5t-140 369.5q0 253 150.5 406.5t402.5 153.5q140 0 247 -49v-216q-107 80 -228 80q-147 0 -241 -99.5t-94 -260.5q0 -159 88.5 -251t237.5 -92q125 0 236 89v-202z"/>
<glyph glyph-name="d" horiz-adv-x="1234" unicode="d" d="M853 468v134q0 109 -71 185t-181 76q-130 0 -204.5 -97t-74.5 -269q0 -156 71.5 -246.5t192.5 -90.5q119 0 193 87.5t74 220.5zM1082 0h-232v174h-4q-112 -198 -345 -198q-189 0 -302.5 137.5t-113.5 374.5q0 254 125.5 407t334.5 153q207 0 301 -166h4v634h232v-1516z "/>
<glyph glyph-name="e" horiz-adv-x="1088" unicode="e" d="M794 613q-1 125 -59 194.5t-160 69.5q-100 0 -169.5 -73t-85.5 -191h474zM1018 449h-698q4 -142 87.5 -219t229.5 -77q164 0 301 98v-187q-140 -88 -370 -88q-226 0 -354.5 139.5t-128.5 392.5q0 239 141.5 389.5t351.5 150.5t325 -135t115 -375v-89z"/>
<glyph glyph-name="f" horiz-adv-x="706" unicode="f" d="M730 1327q-47 27 -107 27q-169 0 -169 -191v-139h238v-182h-237v-842h-232v842h-175v182h175v166q0 162 106 255.5t265 93.5q86 0 136 -19v-193z"/>
<glyph glyph-name="g" horiz-adv-x="1234" unicode="g" d="M853 469v133q0 108 -71.5 184.5t-178.5 76.5q-132 0 -206.5 -97.5t-74.5 -272.5q0 -151 71.5 -241.5t189.5 -90.5q120 0 195 86.5t75 221.5zM1083 82q0 -564 -567 -564q-200 0 -349 67v212q168 -96 319 -96q365 0 365 359v112h-4q-115 -196 -346 -196 q-187 0 -301.5 136.5t-114.5 366.5q0 261 123 415t338 154q203 0 301 -166h4v142h232v-942z"/>
<glyph glyph-name="h" horiz-adv-x="1192" unicode="h" d="M1061 0h-232v560q0 304 -203 304q-102 0 -172 -88t-70 -225v-551h-233v1516h233v-662h4q116 194 332 194q341 0 341 -417v-631z"/>
<glyph glyph-name="i" horiz-adv-x="535" unicode="i" d="M383 0h-232v1024h232v-1024zM268 1239q-57 0 -97.5 37t-40.5 94t40.5 95t97.5 38q59 0 100 -38t41 -95q0 -54 -41 -92.5t-100 -38.5z"/>
<glyph glyph-name="j" horiz-adv-x="535" unicode="j" d="M269 1239q-57 0 -97.5 37t-40.5 94t40.5 95t97.5 38q58 0 99 -38t41 -95q0 -54 -41 -92.5t-99 -38.5zM383 43q0 -252 -106 -388.5t-303 -136.5q-73 0 -142 32v199q65 -45 123 -45q196 0 196 346v974h232v-981z"/>
<glyph glyph-name="k" horiz-adv-x="1075" unicode="k" d="M1080 0h-294l-398 492h-4v-492h-233v1516h233v-961h4l376 469h279l-423 -494z"/>
<glyph glyph-name="l" horiz-adv-x="535" unicode="l" d="M384 0h-233v1516h233v-1516z"/>
<glyph glyph-name="m" horiz-adv-x="1814" unicode="m" d="M1682 0h-232v558q0 161 -45.5 233t-153.5 72q-91 0 -154.5 -91t-63.5 -218v-554h-233v577q0 286 -202 286q-94 0 -154.5 -86t-60.5 -223v-554h-232v1024h232v-162h4q111 186 323 186q106 0 185.5 -58.5t108.5 -153.5q114 212 340 212q338 0 338 -417v-631z"/>
<glyph glyph-name="n" horiz-adv-x="1195" unicode="n" d="M1063 0h-232v577q0 287 -203 287q-106 0 -175 -79.5t-69 -200.5v-584h-233v1024h233v-170h4q115 194 332 194q167 0 255 -108.5t88 -313.5v-626z"/>
<glyph glyph-name="o" horiz-adv-x="1223" unicode="o" d="M616 863q-136 0 -215 -95t-79 -262q0 -161 80 -253.5t214 -92.5q137 0 210.5 91t73.5 259q0 169 -73.5 261t-210.5 92zM605 -24q-237 0 -378.5 143.5t-141.5 380.5q0 258 147.5 403t397.5 145q240 0 374 -141t134 -391q0 -245 -144.5 -392.5t-388.5 -147.5z"/>
<glyph glyph-name="p" horiz-adv-x="1234" unicode="p" d="M381 555v-127q0 -112 71.5 -190t181.5 -78q129 0 202.5 100.5t73.5 280.5q0 151 -68.5 236.5t-185.5 85.5q-124 0 -199.5 -88t-75.5 -220zM387 151h-4v-622h-232v1495h232v-180h4q119 204 348 204q195 0 304 -137t109 -368q0 -256 -123 -410t-336 -154q-196 0 -302 172z "/>
<glyph glyph-name="q" horiz-adv-x="1234" unicode="q" d="M853 466v132q0 111 -71.5 188t-181.5 77q-129 0 -203.5 -96.5t-74.5 -272.5q0 -156 72 -245t186 -89q125 0 199 87t74 219zM1082 -471h-232v647h-4q-105 -200 -343 -200q-189 0 -303.5 137.5t-114.5 374.5q0 255 125.5 407.5t337.5 152.5q206 0 298 -166h4v142h232v-1495 z"/>
<glyph glyph-name="r" horiz-adv-x="758" unicode="r" d="M745 803q-42 33 -121 33q-103 0 -172 -93t-69 -253v-490h-232v1024h232v-211h4q34 108 104.5 168.5t157.5 60.5q63 0 96 -19v-220z"/>
<glyph glyph-name="s" horiz-adv-x="883" unicode="s" d="M87 32v215q130 -99 287 -99q210 0 210 124q0 35 -18 59.5t-48.5 43.5t-72 34t-92.5 34q-63 25 -113.5 53t-84 63.5t-50.5 80.5t-17 105q0 74 35 130.5t94 95t134 58t155 19.5q142 0 254 -43v-203q-108 74 -248 74q-44 0 -79.5 -9t-60.5 -25t-39 -38.5t-14 -49.5 q0 -33 14 -56t41.5 -40.5t66 -32t88.5 -31.5q66 -27 118.5 -55t89.5 -63.5t57 -82t20 -110.5q0 -78 -36 -136t-96 -96t-138.5 -56.5t-165.5 -18.5q-168 0 -291 56z"/>
<glyph glyph-name="t" horiz-adv-x="740" unicode="t" d="M691 11q-68 -34 -179 -34q-298 0 -298 286v579h-171v182h171v237l232 66v-303h245v-182h-245v-512q0 -91 33 -130t110 -39q59 0 102 34v-184z"/>
<glyph glyph-name="u" horiz-adv-x="1195" unicode="u" d="M1044 0h-232v162h-4q-101 -186 -314 -186q-363 0 -363 436v612h232v-588q0 -276 213 -276q103 0 169.5 76t66.5 199v589h232v-1024z"/>
<glyph glyph-name="v" horiz-adv-x="1039" unicode="v" d="M1033 1024l-396 -1024h-251l-377 1024h252l227 -716q26 -79 32 -138h3q9 74 28 134l238 720h244z"/>
<glyph glyph-name="w" horiz-adv-x="1549" unicode="w" d="M1528 1024l-302 -1024h-243l-186 694q-11 40 -14 90h-4q-2 -34 -18 -88l-202 -696h-238l-301 1024h240l186 -738q9 -33 12 -88h7q3 42 16 90l207 736h218l184 -741q9 -35 13 -88h7q2 37 15 88l182 741h221z"/>
<glyph glyph-name="x" horiz-adv-x="1026" unicode="x" d="M1007 1024l-341 -518l337 -506h-269l-180 317q-17 29 -40 74h-4q-4 -9 -42 -74l-183 -317h-268l348 502l-330 522h270l177 -333q20 -37 39 -76h3l229 409h254z"/>
<glyph glyph-name="y" horiz-adv-x="1041" unicode="y" d="M1038 1024l-462 -1188q-144 -318 -404 -318q-73 0 -122 13v193q55 -18 100 -18q130 0 194 128l69 168l-407 1022h257l244 -744q4 -14 18 -74h5q5 23 18 72l256 746h234z"/>
<glyph glyph-name="z" horiz-adv-x="951" unicode="z" d="M907 927l-553 -746h551v-181h-876v87l565 756h-511v181h824v-97z"/>
<glyph glyph-name="braceleft" horiz-adv-x="680" unicode="{" d="M608 -326q-356 4 -356 304v295q0 198 -156 208v146q156 10 156 212v287q0 304 356 308v-155q-159 -4 -159 -191v-282q0 -202 -199 -249v-3q199 -44 199 -247v-279q0 -107 35.5 -152.5t123.5 -47.5v-154z"/>
<glyph glyph-name="bar" horiz-adv-x="570" unicode="|" d="M383 -482h-194v2048h194v-2048z"/>
<glyph glyph-name="braceright" horiz-adv-x="680" unicode="}" d="M583 481q-155 -10 -155 -208v-295q0 -300 -354 -304v154q87 2 123.5 48t36.5 152v279q0 203 197 247v3q-197 47 -197 249v282q0 187 -160 191v155q354 -4 354 -308v-287q0 -202 155 -212v-146z"/>
<glyph glyph-name="asciitilde" d="M1220 759q-7 -159 -80.5 -246.5t-199.5 -87.5q-109 0 -266 98q-97 67 -159 67q-140 0 -146 -169h-166q5 155 79.5 245t201.5 90q113 0 236 -76q132 -91 197 -91q61 0 98 47t39 123h166z" unicode="~"/>
<glyph glyph-name="uni00A0" horiz-adv-x="563" unicode=" "/>
<glyph glyph-name="exclamdown" horiz-adv-x="622" unicode="¡" d="M435 -406h-244l27 1011h189zM311 778q-60 0 -102 39t-42 95t42.5 95.5t102.5 39.5q58 0 100 -39.5t42 -95.5t-42.5 -95t-100.5 -39z"/>
<glyph glyph-name="cent" horiz-adv-x="1137" unicode="¢" d="M631 339v670q-107 -27 -167.5 -117.5t-60.5 -222.5t61 -219t167 -111zM975 208q-88 -58 -203 -68v-189h-141v191q-208 22 -331 161t-123 346q0 219 123 366.5t331 184.5v214h141v-203q113 -2 203 -52v-213q-93 67 -203 74v-690q112 12 203 86v-208z"/>
<glyph glyph-name="sterling" horiz-adv-x="1137" unicode="£" d="M1055 0h-932v176q206 62 206 281v168h-185v175h185v245q0 181 115.5 297t299.5 116q124 0 226 -41v-201q-95 57 -201 57q-218 0 -218 -267v-206h284v-175h-284v-138q0 -215 -193 -301h697v-186z"/>
<glyph glyph-name="currency" horiz-adv-x="1138" unicode="¤" d="M570 985q-109 0 -184 -76t-75 -182t76 -182t183 -76q106 0 183 76t77 182t-78 182t-182 76zM1060 356l-114 -118l-140 139q-104 -71 -236 -71q-137 0 -241 68l-137 -136l-114 118l140 136q-72 111 -72 233q0 127 72 233l-140 138l114 118l141 -139q109 72 237 72t235 -72 l141 139l114 -118l-139 -138q74 -110 74 -233q0 -119 -74 -233z"/>
<glyph glyph-name="yen" horiz-adv-x="1137" unicode="¥" d="M1093 1434l-355 -650h270v-161h-321v-183h321v-161h-321v-279h-228v279h-331v161h331v183h-331v161h275l-348 650h250l231 -494q26 -56 43 -107h4q12 40 45 113l229 488h236z"/>
<glyph glyph-name="brokenbar" horiz-adv-x="570" unicode="¦" d="M383 -482h-194v872h194v-872zM383 701h-194v865h194v-865z"/>
<glyph glyph-name="section" horiz-adv-x="952" unicode="§" d="M423 884q-95 -45 -95 -141q0 -64 53 -112t185 -104q83 60 83 152q0 64 -49.5 109t-176.5 96zM697 424q90 -75 90 -189q0 -134 -107 -217.5t-273 -83.5q-140 0 -255 56v196q132 -79 253 -79q85 0 131.5 35.5t46.5 90.5q0 47 -35.5 80t-181.5 103q-235 120 -235 313 q0 161 145 241q-106 84 -106 226q0 129 99.5 212t261.5 83q138 0 233 -43v-191q-100 62 -221 62q-166 0 -166 -128q0 -48 41 -88t206 -109q225 -107 225 -294q0 -170 -152 -276z"/>
<glyph glyph-name="dieresis" horiz-adv-x="892" unicode="¨" d="M233 1203q-52 0 -89 34.5t-37 82.5q0 49 35.5 82t86.5 33t88.5 -33.5t37.5 -81.5q0 -49 -36 -83t-86 -34zM649 1203q-50 0 -86.5 33t-36.5 84q0 49 35 82t85 33q53 0 89.5 -33.5t36.5 -81.5q0 -49 -35 -83t-88 -34z"/>
<glyph glyph-name="copyright" horiz-adv-x="1808" unicode="©" d="M1206 275q-113 -65 -268 -65q-207 0 -347.5 138t-140.5 345q0 241 143.5 384.5t373.5 143.5q132 0 235 -51v-190q-88 72 -234 72q-144 0 -237.5 -93t-93.5 -249q0 -152 95.5 -244t242.5 -92q135 0 231 78v-177zM905 1364q-269 0 -459 -189.5t-190 -457.5t190 -457.5 t459 -189.5t458.5 189.5t189.5 457.5t-189.5 457.5t-458.5 189.5zM905 -29q-314 0 -535.5 218.5t-221.5 527.5t221.5 527.5t535.5 218.5q313 0 534.5 -218.5t221.5 -527.5t-221.5 -527.5t-534.5 -218.5z"/>
<glyph glyph-name="ordfeminine" horiz-adv-x="820" unicode="ª" d="M544 1066l-155 -22q-144 -20 -144 -116q0 -46 34 -74.5t91 -28.5q69 0 121.5 53.5t52.5 128.5v59zM711 717h-167v100h-4q-77 -120 -225 -120q-107 0 -172.5 60.5t-65.5 154.5q0 204 243 237l224 31q0 143 -145 143q-134 0 -251 -82v150q115 64 276 64q135 0 211 -71.5 t76 -201.5v-465z"/>
<glyph glyph-name="guillemotleft" horiz-adv-x="1105" unicode="«" d="M599 200h-212l-313 336l313 344h211l-317 -344zM1032 200h-214l-311 336l311 344h214l-318 -344z"/>
<glyph glyph-name="logicalnot" d="M1190 259h-164v412h-791v164h955v-576z" unicode="¬"/>
<glyph glyph-name="uni00AD" horiz-adv-x="823" unicode="­" d="M690 474h-546v171h546v-171z"/>
<glyph glyph-name="registered" horiz-adv-x="1808" unicode="®" d="M799 1115v-214h82q139 0 139 108q0 55 -37.5 80.5t-117.5 25.5h-66zM1214 483h-177l-73 174q-56 130 -121 130h-44v-304h-144v752h226q141 0 217 -55t76 -150q0 -77 -46.5 -131.5t-137.5 -73.5v-3q63 -13 125 -139zM905 1354q-206 0 -352.5 -148t-146.5 -354 t146.5 -351.5t352.5 -145.5q207 0 352 145.5t145 351.5t-145 354t-352 148zM904 255q-251 0 -428.5 175t-177.5 423q0 247 177.5 424t428.5 177q250 0 428 -177t178 -424q0 -248 -178 -423t-428 -175z"/>
<glyph glyph-name="macron" horiz-adv-x="850" unicode="¯" d="M850 1396h-850v120h850v-120z"/>
<glyph glyph-name="degree" horiz-adv-x="775" unicode="°" d="M392 1321q-60 0 -102.5 -42t-42.5 -102q0 -61 41.5 -104.5t101.5 -43.5q59 0 102.5 44t43.5 104q0 61 -42.5 102.5t-101.5 41.5zM392 896q-117 0 -199 82t-82 200q0 116 81 196t197 80q118 0 200.5 -80.5t82.5 -195.5q0 -118 -82 -200t-198 -82z"/>
<glyph glyph-name="plusminus" d="M1189 0h-954v164h954v-164zM1190 671h-395v-396h-163v396h-396v164h396v398h163v-398h395v-164z" unicode="±"/>
<glyph glyph-name="uni00B2" horiz-adv-x="785" unicode="²" d="M686 884h-577v88q0 61 28.5 109t71 88t92 75.5t92 72t71 77t28.5 91.5t-33.5 83t-88.5 32q-117 0 -214 -102v179q88 77 242 77q63 0 113.5 -17.5t86 -49.5t54.5 -78t19 -104q0 -69 -27.5 -127t-68 -105.5t-88.5 -85t-88.5 -66t-68 -49t-27.5 -34.5v-7h383v-147z"/>
<glyph glyph-name="uni00B3" horiz-adv-x="785" unicode="³" d="M130 916v160q104 -73 219 -73q75 0 118.5 33t43.5 89q0 124 -215 124h-82v140h78q192 0 192 117q0 106 -132 106q-97 0 -192 -67v155q92 54 225 54q122 0 194 -60.5t72 -157.5q0 -147 -144 -200v-4q174 -42 174 -200q0 -119 -90 -194t-241 -75q-140 0 -220 53z"/>
<glyph glyph-name="acute" horiz-adv-x="597" unicode="´" d="M568 1546l-286 -328h-172l242 328h216z"/>
<glyph glyph-name="uni00B5" horiz-adv-x="1215" unicode="µ" d="M1098 0h-239q-23 69 -23 161h-5q-73 -184 -244 -184q-141 0 -201 96h-3v-468h-232v1419h232v-610q0 -112 59 -178.5t154 -66.5q103 0 167.5 78t64.5 210v567h235v-759q0 -188 35 -265z"/>
<glyph glyph-name="paragraph" horiz-adv-x="985" unicode="¶" d="M884 1304h-123v-1304h-136v1304h-140v-1304h-139v874q-113 0 -187.5 80t-74.5 202q0 123 79.5 200.5t193.5 77.5h527v-130z"/>
<glyph glyph-name="periodcentered" horiz-adv-x="494" unicode="·" d="M245 499q-59 0 -100.5 40t-41.5 96q0 57 42.5 96.5t102.5 39.5t102.5 -39.5t42.5 -96.5q0 -56 -43 -96t-105 -40z"/>
<glyph glyph-name="cedilla" horiz-adv-x="429" unicode="¸" d="M420 -248q0 -194 -288 -194q-47 0 -81 3v111q44 -6 71 -6q133 0 133 82q0 74 -121 74q-10 0 -39 -4v182h136v-94q87 0 138 -40.5t51 -113.5z"/>
<glyph glyph-name="uni00B9" horiz-adv-x="759" unicode="¹" d="M326 886v673q-29 -25 -62 -47t-63.5 -39.5t-56.5 -29.5t-41 -17v149q42 15 85.5 36t84.5 44.5t77 49t64 50.5h81v-869h-169z"/>
<glyph glyph-name="ordmasculine" horiz-adv-x="905" unicode="º" d="M453 1315q-92 0 -146 -64.5t-54 -177.5q0 -111 51.5 -174t147.5 -63q91 0 144.5 65t53.5 176t-52.5 174.5t-144.5 63.5zM446 696q-174 0 -273 101.5t-99 275.5q0 179 106 280t281 101q170 0 268.5 -99t98.5 -270q0 -178 -103.5 -283.5t-278.5 -105.5z"/>
<glyph glyph-name="guillemotright" horiz-adv-x="1105" unicode="»" d="M600 538l-312 -338h-214l320 338l-320 342h214zM1033 538l-313 -338h-211l315 338l-315 342h211z"/>
<glyph glyph-name="onequarter" horiz-adv-x="1898" unicode="¼" d="M307 586v673q-29 -25 -62 -47t-63.5 -39.5t-56.5 -29.5t-41 -17v149q42 15 85.5 36t84.5 44.5t77 49t64 50.5h81v-869h-169zM1447 1434l-875 -1434h-189l873 1434h191zM1490 322v352q-16 -32 -44 -79.5t-61 -97.5t-67.5 -97t-62.5 -78h235zM1769 192h-110v-191h-169v191 h-394v124q49 57 94.5 115.5t89.5 123t87.5 137.5t89.5 159h202v-529h110v-130z"/>
<glyph glyph-name="onehalf" horiz-adv-x="1938" unicode="½" d="M307 586v673q-29 -25 -62 -47t-63.5 -39.5t-56.5 -29.5t-41 -17v149q42 15 85.5 36t84.5 44.5t77 49t64 50.5h81v-869h-169zM1790 1h-577v88q0 61 28.5 109t71 88t92 75.5t92 72t71 77t28.5 91.5t-33.5 83t-88.5 32q-117 0 -214 -102v179q88 77 242 77q63 0 113.5 -17.5 t86 -49.5t54.5 -78t19 -104q0 -69 -27.5 -127t-68 -105.5t-88.5 -85t-88.5 -66t-68 -49t-27.5 -34.5v-7h383v-147zM1445 1434l-875 -1434h-189l873 1434h191z"/>
<glyph glyph-name="threequarters" horiz-adv-x="1975" unicode="¾" d="M130 616v160q104 -73 219 -73q75 0 118.5 33t43.5 89q0 124 -215 124h-82v140h78q192 0 192 117q0 106 -132 106q-97 0 -192 -67v155q92 54 225 54q122 0 194 -60.5t72 -157.5q0 -147 -144 -200v-4q174 -42 174 -200q0 -119 -90 -194t-241 -75q-140 0 -220 53zM1511 1434 l-875 -1434h-189l873 1434h191zM1546 322v352q-16 -32 -44 -79.5t-61 -97.5t-67.5 -97t-62.5 -78h235zM1825 192h-110v-191h-169v191h-394v124q49 57 94.5 115.5t89.5 123t87.5 137.5t89.5 159h202v-529h110v-130z"/>
<glyph glyph-name="questiondown" horiz-adv-x="909" unicode="¿" d="M519 1047q57 0 102 -39q43 -38 43 -96q0 -56 -43 -95q-43 -40 -102 -40q-58 0 -100 40q-43 39 -43 95q0 58 43 96q43 39 100 39zM634 621q9 -25 16 -64t7 -78q0 -60 -24 -109t-60 -91.5t-78 -81.5t-78 -79t-60 -84t-24 -97q0 -42 16 -74.5t43 -54.5t63 -33t76 -11 q176 0 306 132v-232q-161 -94 -334 -94q-83 0 -155.5 21.5t-127 63.5t-86.5 105t-32 146q0 73 26 130.5t65.5 106t85.5 90t85.5 82.5t65.5 85.5t26 98.5q0 38 -9.5 69t-18.5 53h206z"/>
<glyph glyph-name="Agrave" horiz-adv-x="1375" unicode="À" d="M902 559l-199 572q-9 28 -19 90h-4q-9 -57 -20 -90l-197 -572h439zM1355 0h-261l-129 365h-564l-124 -365h-260l537 1434h268zM828 1566h-173l-262 328h214z"/>
<glyph glyph-name="Aacute" horiz-adv-x="1375" unicode="Á" d="M902 559l-199 572q-9 28 -19 90h-4q-9 -57 -20 -90l-197 -572h439zM1355 0h-261l-129 365h-564l-124 -365h-260l537 1434h268zM954 1908l-286 -328h-172l242 328h216z"/>
<glyph glyph-name="Acircumflex" horiz-adv-x="1375" unicode="Â" d="M902 559l-199 572q-9 28 -19 90h-4q-9 -57 -20 -90l-197 -572h439zM1355 0h-261l-129 365h-564l-124 -365h-260l537 1434h268zM994 1566h-160l-161 211l-157 -211h-155l224 328h184z"/>
<glyph glyph-name="Atilde" horiz-adv-x="1375" unicode="Ã" d="M902 559l-199 572q-9 28 -19 90h-4q-9 -57 -20 -90l-197 -572h439zM1355 0h-261l-129 365h-564l-124 -365h-260l537 1434h268zM1021 1836q0 -116 -51.5 -189.5t-139.5 -73.5q-72 0 -165 48q-78 45 -121 45q-84 0 -84 -111h-115q0 119 51 190.5t143 71.5q68 0 157 -51 q72 -44 125 -44q81 0 81 114h119z"/>
<glyph glyph-name="Adieresis" horiz-adv-x="1375" unicode="Ä" d="M902 559l-199 572q-9 28 -19 90h-4q-9 -57 -20 -90l-197 -572h439zM1355 0h-261l-129 365h-564l-124 -365h-260l537 1434h268zM470 1565q-52 0 -89 34.5t-37 82.5q0 49 35.5 82t86.5 33t88.5 -33.5t37.5 -81.5q0 -49 -36 -83t-86 -34zM886 1565q-50 0 -86.5 33t-36.5 84 q0 49 35 82t85 33q53 0 89.5 -33.5t36.5 -81.5q0 -49 -35 -83t-88 -34z"/>
<glyph glyph-name="Aring" horiz-adv-x="1375" unicode="Å" d="M902 559l-199 572q-9 28 -19 90h-4q-9 -57 -20 -90l-197 -572h439zM1355 0h-261l-129 365h-564l-124 -365h-260l537 1434h268zM679 1643q-45 0 -74.5 -30t-29.5 -74q0 -104 104 -104q48 0 79.5 29.5t31.5 74.5t-31.5 74.5t-79.5 29.5zM679 1333q-94 0 -155.5 54 t-61.5 142q0 98 63 156t161 58q96 0 157.5 -58.5t61.5 -149.5q0 -87 -65.5 -144.5t-160.5 -57.5z"/>
<glyph glyph-name="AE" horiz-adv-x="1831" unicode="Æ" d="M945 559v673h-87l-317 -673h404zM1749 0h-804v365h-492l-172 -365h-275l710 1434h1000v-202h-534v-406h497v-201h-497v-424h567v-201z"/>
<glyph glyph-name="Ccedilla" horiz-adv-x="1272" unicode="Ç" d="M1177 60q-162 -84 -403 -84q-312 0 -500 197t-188 517q0 344 211.5 556t534.5 212q208 0 345 -59v-236q-145 86 -320 86q-233 0 -377.5 -149t-144.5 -398q0 -237 135 -377.5t355 -140.5q203 0 352 96v-220zM984 -248q0 -194 -288 -194q-47 0 -81 3v111q44 -6 71 -6 q133 0 133 82q0 74 -121 74q-10 0 -39 -4v182h136v-94q87 0 138 -40.5t51 -113.5z"/>
<glyph glyph-name="Egrave" horiz-adv-x="1060" unicode="È" d="M982 0h-805v1434h773v-202h-535v-406h493v-201h-493v-424h567v-201zM731 1566h-173l-262 328h214z"/>
<glyph glyph-name="Eacute" horiz-adv-x="1060" unicode="É" d="M982 0h-805v1434h773v-202h-535v-406h493v-201h-493v-424h567v-201zM873 1908l-286 -328h-172l242 328h216z"/>
<glyph glyph-name="Ecircumflex" horiz-adv-x="1060" unicode="Ê" d="M982 0h-805v1434h773v-202h-535v-406h493v-201h-493v-424h567v-201zM873 1567h-160l-161 211l-157 -211h-155l224 328h184z"/>
<glyph glyph-name="Edieresis" horiz-adv-x="1060" unicode="Ë" d="M982 0h-805v1434h773v-202h-535v-406h493v-201h-493v-424h567v-201zM360 1565q-52 0 -89 34.5t-37 82.5q0 49 35.5 82t86.5 33t88.5 -33.5t37.5 -81.5q0 -49 -36 -83t-86 -34zM776 1565q-50 0 -86.5 33t-36.5 84q0 49 35 82t85 33q53 0 89.5 -33.5t36.5 -81.5 q0 -49 -35 -83t-88 -34z"/>
<glyph glyph-name="Igrave" horiz-adv-x="597" unicode="Ì" d="M421 0h-245v1434h245v-1434zM469 1566h-173l-262 328h214z"/>
<glyph glyph-name="Iacute" horiz-adv-x="597" unicode="Í" d="M421 0h-245v1434h245v-1434zM584 1908l-286 -328h-172l242 328h216z"/>
<glyph glyph-name="Icircumflex" horiz-adv-x="597" unicode="Î" d="M421 0h-245v1434h245v-1434zM620 1567h-160l-161 211l-157 -211h-155l224 328h184z"/>
<glyph glyph-name="Idieresis" horiz-adv-x="597" unicode="Ï" d="M421 0h-245v1434h245v-1434zM95 1565q-52 0 -89 34.5t-37 82.5q0 49 35.5 82t86.5 33t88.5 -33.5t37.5 -81.5q0 -49 -36 -83t-86 -34zM511 1565q-50 0 -86.5 33t-36.5 84q0 49 35 82t85 33q53 0 89.5 -33.5t36.5 -81.5q0 -49 -35 -83t-88 -34z"/>
<glyph glyph-name="Eth" horiz-adv-x="1469" unicode="Ð" d="M414 1232v-411h307v-205h-307v-415h190q251 0 390.5 138t139.5 392q0 501 -521 501h-199zM177 0v616h-162v205h162v613h414q793 0 793 -699q0 -334 -220 -534.5t-590 -200.5h-397z"/>
<glyph glyph-name="Ntilde" horiz-adv-x="1571" unicode="Ñ" d="M1393 0h-260l-685 1054q-26 40 -43 83h-6q8 -46 8 -197v-940h-230v1434h277l662 -1029q42 -64 54 -88h4q-10 57 -10 193v924h229v-1434zM1154 1836q0 -116 -51.5 -189.5t-139.5 -73.5q-72 0 -165 48q-78 45 -121 45q-84 0 -84 -111h-115q0 119 51 190.5t143 71.5 q68 0 157 -51q72 -44 125 -44q81 0 81 114h119z"/>
<glyph glyph-name="Ograve" horiz-adv-x="1548" unicode="Ò" d="M779 1249q-197 0 -320.5 -147t-123.5 -387q0 -239 120 -385t314 -146q206 0 325 139t119 389q0 257 -115.5 397t-318.5 140zM768 -24q-310 0 -496.5 201t-186.5 523q0 346 190 552t516 206q302 0 486.5 -200t184.5 -523q0 -351 -189 -555t-505 -204zM920 1566h-173 l-262 328h214z"/>
<glyph glyph-name="Oacute" horiz-adv-x="1548" unicode="Ó" d="M779 1249q-197 0 -320.5 -147t-123.5 -387q0 -239 120 -385t314 -146q206 0 325 139t119 389q0 257 -115.5 397t-318.5 140zM768 -24q-310 0 -496.5 201t-186.5 523q0 346 190 552t516 206q302 0 486.5 -200t184.5 -523q0 -351 -189 -555t-505 -204zM1076 1908l-286 -328 h-172l242 328h216z"/>
<glyph glyph-name="Ocircumflex" horiz-adv-x="1548" unicode="Ô" d="M779 1249q-197 0 -320.5 -147t-123.5 -387q0 -239 120 -385t314 -146q206 0 325 139t119 389q0 257 -115.5 397t-318.5 140zM768 -24q-310 0 -496.5 201t-186.5 523q0 346 190 552t516 206q302 0 486.5 -200t184.5 -523q0 -351 -189 -555t-505 -204zM1101 1566h-160 l-161 211l-157 -211h-155l224 328h184z"/>
<glyph glyph-name="Otilde" horiz-adv-x="1548" unicode="Õ" d="M779 1249q-197 0 -320.5 -147t-123.5 -387q0 -239 120 -385t314 -146q206 0 325 139t119 389q0 257 -115.5 397t-318.5 140zM768 -24q-310 0 -496.5 201t-186.5 523q0 346 190 552t516 206q302 0 486.5 -200t184.5 -523q0 -351 -189 -555t-505 -204zM1122 1835 q0 -116 -51.5 -189.5t-139.5 -73.5q-72 0 -165 48q-78 45 -121 45q-84 0 -84 -111h-115q0 119 51 190.5t143 71.5q68 0 157 -51q72 -44 125 -44q81 0 81 114h119z"/>
<glyph glyph-name="Odieresis" horiz-adv-x="1548" unicode="Ö" d="M779 1249q-197 0 -320.5 -147t-123.5 -387q0 -239 120 -385t314 -146q206 0 325 139t119 389q0 257 -115.5 397t-318.5 140zM768 -24q-310 0 -496.5 201t-186.5 523q0 346 190 552t516 206q302 0 486.5 -200t184.5 -523q0 -351 -189 -555t-505 -204zM567 1564 q-52 0 -89 34.5t-37 82.5q0 49 35.5 82t86.5 33t88.5 -33.5t37.5 -81.5q0 -49 -36 -83t-86 -34zM983 1564q-50 0 -86.5 33t-36.5 84q0 49 35 82t85 33q53 0 89.5 -33.5t36.5 -81.5q0 -49 -35 -83t-88 -34z"/>
<glyph glyph-name="multiply" d="M1168 253l-116 -116l-340 340l-339 -340l-117 117l340 337l-340 340l115 117l341 -340l341 340l114 -119l-339 -338z" unicode="×"/>
<glyph glyph-name="Oslash" horiz-adv-x="1548" unicode="Ø" d="M1136 1069l-659 -780q114 -117 291 -117q212 0 334 142.5t122 397.5q0 222 -88 357zM1057 1171q-111 90 -276 90q-204 0 -330.5 -151.5t-126.5 -394.5q0 -192 75 -321zM335 121l-148 -177l-99 83l154 184q-157 193 -157 489q0 343 189.5 550.5t517.5 207.5 q233 0 401 -125l132 157l99 -81l-137 -162q176 -194 176 -512q0 -351 -189 -555t-506 -204q-261 0 -433 145z"/>
<glyph glyph-name="Ugrave" horiz-adv-x="1440" unicode="Ù" d="M1280 580q0 -604 -572 -604q-548 0 -548 581v877h238v-828q0 -422 328 -422q316 0 316 407v843h238v-854zM870 1566h-173l-262 328h214z"/>
<glyph glyph-name="Uacute" horiz-adv-x="1440" unicode="Ú" d="M1280 580q0 -604 -572 -604q-548 0 -548 581v877h238v-828q0 -422 328 -422q316 0 316 407v843h238v-854zM1029 1908l-286 -328h-172l242 328h216z"/>
<glyph glyph-name="Ucircumflex" horiz-adv-x="1440" unicode="Û" d="M1280 580q0 -604 -572 -604q-548 0 -548 581v877h238v-828q0 -422 328 -422q316 0 316 407v843h238v-854zM1037 1567h-160l-161 211l-157 -211h-155l224 328h184z"/>
<glyph glyph-name="Udieresis" horiz-adv-x="1440" unicode="Ü" d="M1280 580q0 -604 -572 -604q-548 0 -548 581v877h238v-828q0 -422 328 -422q316 0 316 407v843h238v-854zM511 1566q-52 0 -89 34.5t-37 82.5q0 49 35.5 82t86.5 33t88.5 -33.5t37.5 -81.5q0 -49 -36 -83t-86 -34zM927 1566q-50 0 -86.5 33t-36.5 84q0 49 35 82t85 33 q53 0 89.5 -33.5t36.5 -81.5q0 -49 -35 -83t-88 -34z"/>
<glyph glyph-name="Yacute" horiz-adv-x="1182" unicode="Ý" d="M1176 1434l-470 -913v-521h-238v516l-458 918h271l282 -615q5 -11 30 -83h3q9 32 33 83l295 615h252zM908 1894l-286 -328h-172l242 328h216z"/>
<glyph glyph-name="Thorn" horiz-adv-x="1197" unicode="Þ" d="M415 1020v-524h154q151 0 231.5 69t80.5 198q0 257 -294 257h-172zM415 301v-301h-238v1434h238v-219h207q245 0 377 -115t132 -326q0 -209 -143 -341t-385 -132h-188z"/>
<glyph glyph-name="germandbls" horiz-adv-x="1191" unicode="ß" d="M498 2v206q70 -48 158 -48q102 0 166 64.5t64 172.5q0 131 -95.5 213t-263.5 99v171q109 18 180 92.5t71 176.5q0 97 -50 150.5t-136 53.5q-209 0 -209 -280v-1073h-232v1084q0 206 123.5 330t332.5 124q186 0 297.5 -96t111.5 -253q0 -129 -73 -231t-190 -141v-5 q371 -74 371 -422q0 -176 -119.5 -295t-316.5 -119q-107 0 -190 26z"/>
<glyph glyph-name="agrave" horiz-adv-x="1069" unicode="à" d="M713 503l-215 -30q-100 -13 -150.5 -48.5t-50.5 -124.5q0 -65 46.5 -106.5t124.5 -41.5q106 0 175.5 74.5t69.5 187.5v89zM937 0h-225v160h-4q-106 -184 -311 -184q-151 0 -236.5 82t-85.5 217q0 290 334 338l304 43q0 219 -208 219q-183 0 -330 -126v203q162 96 374 96 q388 0 388 -382v-666zM719 1204h-173l-262 328h214z"/>
<glyph glyph-name="aacute" horiz-adv-x="1069" unicode="á" d="M713 503l-215 -30q-100 -13 -150.5 -48.5t-50.5 -124.5q0 -65 46.5 -106.5t124.5 -41.5q106 0 175.5 74.5t69.5 187.5v89zM937 0h-225v160h-4q-106 -184 -311 -184q-151 0 -236.5 82t-85.5 217q0 290 334 338l304 43q0 219 -208 219q-183 0 -330 -126v203q162 96 374 96 q388 0 388 -382v-666zM828 1546l-286 -328h-172l242 328h216z"/>
<glyph glyph-name="acircumflex" horiz-adv-x="1069" unicode="â" d="M713 503l-215 -30q-100 -13 -150.5 -48.5t-50.5 -124.5q0 -65 46.5 -106.5t124.5 -41.5q106 0 175.5 74.5t69.5 187.5v89zM937 0h-225v160h-4q-106 -184 -311 -184q-151 0 -236.5 82t-85.5 217q0 290 334 338l304 43q0 219 -208 219q-183 0 -330 -126v203q162 96 374 96 q388 0 388 -382v-666zM854 1204h-160l-161 211l-157 -211h-155l224 328h184z"/>
<glyph glyph-name="atilde" horiz-adv-x="1069" unicode="ã" d="M713 503l-215 -30q-100 -13 -150.5 -48.5t-50.5 -124.5q0 -65 46.5 -106.5t124.5 -41.5q106 0 175.5 74.5t69.5 187.5v89zM937 0h-225v160h-4q-106 -184 -311 -184q-151 0 -236.5 82t-85.5 217q0 290 334 338l304 43q0 219 -208 219q-183 0 -330 -126v203q162 96 374 96 q388 0 388 -382v-666zM872 1475q0 -116 -51.5 -189.5t-139.5 -73.5q-72 0 -165 48q-78 45 -121 45q-84 0 -84 -111h-115q0 119 51 190.5t143 71.5q68 0 157 -51q72 -44 125 -44q81 0 81 114h119z"/>
<glyph glyph-name="adieresis" horiz-adv-x="1069" unicode="ä" d="M713 503l-215 -30q-100 -13 -150.5 -48.5t-50.5 -124.5q0 -65 46.5 -106.5t124.5 -41.5q106 0 175.5 74.5t69.5 187.5v89zM937 0h-225v160h-4q-106 -184 -311 -184q-151 0 -236.5 82t-85.5 217q0 290 334 338l304 43q0 219 -208 219q-183 0 -330 -126v203q162 96 374 96 q388 0 388 -382v-666zM326 1203q-52 0 -89 34.5t-37 82.5q0 49 35.5 82t86.5 33t88.5 -33.5t37.5 -81.5q0 -49 -36 -83t-86 -34zM742 1203q-50 0 -86.5 33t-36.5 84q0 49 35 82t85 33q53 0 89.5 -33.5t36.5 -81.5q0 -49 -35 -83t-88 -34z"/>
<glyph glyph-name="aring" horiz-adv-x="1069" unicode="å" d="M713 503l-215 -30q-100 -13 -150.5 -48.5t-50.5 -124.5q0 -65 46.5 -106.5t124.5 -41.5q106 0 175.5 74.5t69.5 187.5v89zM937 0h-225v160h-4q-106 -184 -311 -184q-151 0 -236.5 82t-85.5 217q0 290 334 338l304 43q0 219 -208 219q-183 0 -330 -126v203q162 96 374 96 q388 0 388 -382v-666zM541 1490q-45 0 -74.5 -30t-29.5 -74q0 -104 104 -104q48 0 79.5 29.5t31.5 74.5t-31.5 74.5t-79.5 29.5zM541 1180q-94 0 -155.5 54t-61.5 142q0 98 63 156t161 58q96 0 157.5 -58.5t61.5 -149.5q0 -87 -65.5 -144.5t-160.5 -57.5z"/>
<glyph glyph-name="ae" horiz-adv-x="1700" unicode="æ" d="M713 412v55l-177 -11q-121 -7 -180.5 -43t-59.5 -119q0 -64 46.5 -103t125.5 -39q103 0 174 74t71 186zM1406 613q-2 127 -59 195.5t-160 68.5q-98 0 -168.5 -72t-86.5 -192h474zM1630 449h-699q3 -142 85 -219.5t225 -77.5q171 0 310 99v-186q-135 -89 -367 -89 q-275 0 -390 206h-4q-140 -206 -372 -206q-160 0 -251.5 82.5t-91.5 220.5q0 306 379 331l259 16q0 250 -201 250q-178 0 -336 -115v196q152 91 357 91q240 0 311 -170h4q114 170 349 170q206 0 319.5 -135.5t113.5 -376.5v-87z"/>
<glyph glyph-name="ccedilla" horiz-adv-x="963" unicode="ç" d="M884 47q-123 -71 -291 -71q-228 0 -368 142.5t-140 369.5q0 253 150.5 406.5t402.5 153.5q140 0 247 -49v-216q-107 80 -228 80q-147 0 -241 -99.5t-94 -260.5q0 -159 88.5 -251t237.5 -92q125 0 236 89v-202zM801 -248q0 -194 -288 -194q-47 0 -81 3v111q44 -6 71 -6 q133 0 133 82q0 74 -121 74q-10 0 -39 -4v182h136v-94q87 0 138 -40.5t51 -113.5z"/>
<glyph glyph-name="egrave" horiz-adv-x="1088" unicode="è" d="M794 613q-1 125 -59 194.5t-160 69.5q-100 0 -169.5 -73t-85.5 -191h474zM1018 449h-698q4 -142 87.5 -219t229.5 -77q164 0 301 98v-187q-140 -88 -370 -88q-226 0 -354.5 139.5t-128.5 392.5q0 239 141.5 389.5t351.5 150.5t325 -135t115 -375v-89zM756 1204h-173 l-262 328h214z"/>
<glyph glyph-name="eacute" horiz-adv-x="1088" unicode="é" d="M794 613q-1 125 -59 194.5t-160 69.5q-100 0 -169.5 -73t-85.5 -191h474zM1018 449h-698q4 -142 87.5 -219t229.5 -77q164 0 301 98v-187q-140 -88 -370 -88q-226 0 -354.5 139.5t-128.5 392.5q0 239 141.5 389.5t351.5 150.5t325 -135t115 -375v-89zM863 1546l-286 -328 h-172l242 328h216z"/>
<glyph glyph-name="ecircumflex" horiz-adv-x="1088" unicode="ê" d="M794 613q-1 125 -59 194.5t-160 69.5q-100 0 -169.5 -73t-85.5 -191h474zM1018 449h-698q4 -142 87.5 -219t229.5 -77q164 0 301 98v-187q-140 -88 -370 -88q-226 0 -354.5 139.5t-128.5 392.5q0 239 141.5 389.5t351.5 150.5t325 -135t115 -375v-89zM888 1204h-160 l-161 211l-157 -211h-155l224 328h184z"/>
<glyph glyph-name="edieresis" horiz-adv-x="1088" unicode="ë" d="M794 613q-1 125 -59 194.5t-160 69.5q-100 0 -169.5 -73t-85.5 -191h474zM1018 449h-698q4 -142 87.5 -219t229.5 -77q164 0 301 98v-187q-140 -88 -370 -88q-226 0 -354.5 139.5t-128.5 392.5q0 239 141.5 389.5t351.5 150.5t325 -135t115 -375v-89zM357 1203 q-52 0 -89 34.5t-37 82.5q0 49 35.5 82t86.5 33t88.5 -33.5t37.5 -81.5q0 -49 -36 -83t-86 -34zM773 1203q-50 0 -86.5 33t-36.5 84q0 49 35 82t85 33q53 0 89.5 -33.5t36.5 -81.5q0 -49 -35 -83t-88 -34z"/>
<glyph glyph-name="igrave" horiz-adv-x="535" unicode="ì" d="M384 0h-233v1024h233v-1024zM435 1204h-173l-262 328h214z"/>
<glyph glyph-name="iacute" horiz-adv-x="535" unicode="í" d="M384 0h-233v1024h233v-1024zM551 1546l-286 -328h-172l242 328h216z"/>
<glyph glyph-name="icircumflex" horiz-adv-x="535" unicode="î" d="M384 0h-233v1024h233v-1024zM582 1204h-160l-161 211l-157 -211h-155l224 328h184z"/>
<glyph glyph-name="idieresis" horiz-adv-x="535" unicode="ï" d="M384 0h-233v1024h233v-1024zM58 1203q-52 0 -89 34.5t-37 82.5q0 49 35.5 82t86.5 33t88.5 -33.5t37.5 -81.5q0 -49 -36 -83t-86 -34zM474 1203q-50 0 -86.5 33t-36.5 84q0 49 35 82t85 33q53 0 89.5 -33.5t36.5 -81.5q0 -49 -35 -83t-88 -34z"/>
<glyph glyph-name="eth" horiz-adv-x="1176" unicode="ð" d="M595 863q-127 0 -200 -95t-73 -259q0 -161 71 -255t198 -94q121 0 191.5 96.5t70.5 257.5q0 349 -258 349zM772 966l4 3q-90 154 -197 253l-295 -148l-65 118l257 123q-119 105 -266 201h280q67 -45 153 -119l282 139l65 -113l-242 -119q342 -307 342 -762 q0 -247 -136 -405.5t-370 -158.5q-235 0 -367 141.5t-132 386.5q0 239 129.5 388t349.5 149q122 0 208 -77z"/>
<glyph glyph-name="ntilde" horiz-adv-x="1195" unicode="ñ" d="M1063 0h-232v577q0 287 -203 287q-106 0 -175 -79.5t-69 -200.5v-584h-233v1024h233v-170h4q115 194 332 194q167 0 255 -108.5t88 -313.5v-626zM941 1475q0 -116 -51.5 -189.5t-139.5 -73.5q-72 0 -165 48q-78 45 -121 45q-84 0 -84 -111h-115q0 119 51 190.5t143 71.5 q68 0 157 -51q72 -44 125 -44q81 0 81 114h119z"/>
<glyph glyph-name="ograve" horiz-adv-x="1223" unicode="ò" d="M616 863q-136 0 -215 -95t-79 -262q0 -161 80 -253.5t214 -92.5q137 0 210.5 91t73.5 259q0 169 -73.5 261t-210.5 92zM605 -24q-237 0 -378.5 143.5t-141.5 380.5q0 258 147.5 403t397.5 145q240 0 374 -141t134 -391q0 -245 -144.5 -392.5t-388.5 -147.5zM794 1204 h-173l-262 328h214z"/>
<glyph glyph-name="oacute" horiz-adv-x="1223" unicode="ó" d="M616 863q-136 0 -215 -95t-79 -262q0 -161 80 -253.5t214 -92.5q137 0 210.5 91t73.5 259q0 169 -73.5 261t-210.5 92zM605 -24q-237 0 -378.5 143.5t-141.5 380.5q0 258 147.5 403t397.5 145q240 0 374 -141t134 -391q0 -245 -144.5 -392.5t-388.5 -147.5zM912 1546 l-286 -328h-172l242 328h216z"/>
<glyph glyph-name="ocircumflex" horiz-adv-x="1223" unicode="ô" d="M616 863q-136 0 -215 -95t-79 -262q0 -161 80 -253.5t214 -92.5q137 0 210.5 91t73.5 259q0 169 -73.5 261t-210.5 92zM605 -24q-237 0 -378.5 143.5t-141.5 380.5q0 258 147.5 403t397.5 145q240 0 374 -141t134 -391q0 -245 -144.5 -392.5t-388.5 -147.5zM931 1204 h-160l-161 211l-157 -211h-155l224 328h184z"/>
<glyph glyph-name="otilde" horiz-adv-x="1223" unicode="õ" d="M616 863q-136 0 -215 -95t-79 -262q0 -161 80 -253.5t214 -92.5q137 0 210.5 91t73.5 259q0 169 -73.5 261t-210.5 92zM605 -24q-237 0 -378.5 143.5t-141.5 380.5q0 258 147.5 403t397.5 145q240 0 374 -141t134 -391q0 -245 -144.5 -392.5t-388.5 -147.5zM955 1475 q0 -116 -51.5 -189.5t-139.5 -73.5q-72 0 -165 48q-78 45 -121 45q-84 0 -84 -111h-115q0 119 51 190.5t143 71.5q68 0 157 -51q72 -44 125 -44q81 0 81 114h119z"/>
<glyph glyph-name="odieresis" horiz-adv-x="1223" unicode="ö" d="M616 863q-136 0 -215 -95t-79 -262q0 -161 80 -253.5t214 -92.5q137 0 210.5 91t73.5 259q0 169 -73.5 261t-210.5 92zM605 -24q-237 0 -378.5 143.5t-141.5 380.5q0 258 147.5 403t397.5 145q240 0 374 -141t134 -391q0 -245 -144.5 -392.5t-388.5 -147.5zM406 1203 q-52 0 -89 34.5t-37 82.5q0 49 35.5 82t86.5 33t88.5 -33.5t37.5 -81.5q0 -49 -36 -83t-86 -34zM822 1203q-50 0 -86.5 33t-36.5 84q0 49 35 82t85 33q53 0 89.5 -33.5t36.5 -81.5q0 -49 -35 -83t-88 -34z"/>
<glyph glyph-name="divide" d="M714 82q-51 0 -86.5 34.5t-35.5 83.5q0 51 34.5 88.5t87.5 37.5q117 0 117 -124q0 -51 -33.5 -85.5t-83.5 -34.5zM1190 509h-956v165h956v-165zM723 858q-53 0 -89.5 34.5t-36.5 84.5q0 52 33.5 88.5t87.5 36.5q118 0 118 -123q0 -53 -33.5 -87t-79.5 -34z" unicode="÷"/>
<glyph glyph-name="oslash" horiz-adv-x="1223" unicode="ø" d="M877 701l-456 -488q76 -62 194 -62q145 0 221 94.5t76 266.5q0 110 -35 189zM798 815q-67 59 -181 59q-141 0 -222.5 -97t-81.5 -268q0 -105 35 -178zM1188 1030l-155 -164q105 -137 105 -344q0 -252 -145.5 -399t-387.5 -147q-194 0 -322 95l-140 -151l-99 90l144 155 q-103 137 -103 341q0 256 147 399.5t395 143.5q185 0 310 -91l151 163z"/>
<glyph glyph-name="ugrave" horiz-adv-x="1195" unicode="ù" d="M1044 0h-232v162h-4q-101 -186 -314 -186q-363 0 -363 436v612h232v-588q0 -276 213 -276q103 0 169.5 76t66.5 199v589h232v-1024zM740 1204h-173l-262 328h214z"/>
<glyph glyph-name="uacute" horiz-adv-x="1195" unicode="ú" d="M1044 0h-232v162h-4q-101 -186 -314 -186q-363 0 -363 436v612h232v-588q0 -276 213 -276q103 0 169.5 76t66.5 199v589h232v-1024zM913 1546l-286 -328h-172l242 328h216z"/>
<glyph glyph-name="ucircumflex" horiz-adv-x="1195" unicode="û" d="M1044 0h-232v162h-4q-101 -186 -314 -186q-363 0 -363 436v612h232v-588q0 -276 213 -276q103 0 169.5 76t66.5 199v589h232v-1024zM905 1204h-160l-161 211l-157 -211h-155l224 328h184z"/>
<glyph glyph-name="udieresis" horiz-adv-x="1195" unicode="ü" d="M1044 0h-232v162h-4q-101 -186 -314 -186q-363 0 -363 436v612h232v-588q0 -276 213 -276q103 0 169.5 76t66.5 199v589h232v-1024zM386 1203q-52 0 -89 34.5t-37 82.5q0 49 35.5 82t86.5 33t88.5 -33.5t37.5 -81.5q0 -49 -36 -83t-86 -34zM802 1203q-50 0 -86.5 33 t-36.5 84q0 49 35 82t85 33q53 0 89.5 -33.5t36.5 -81.5q0 -49 -35 -83t-88 -34z"/>
<glyph glyph-name="yacute" horiz-adv-x="1041" unicode="ý" d="M1038 1024l-462 -1188q-144 -318 -404 -318q-73 0 -122 13v193q55 -18 100 -18q130 0 194 128l69 168l-407 1022h257l244 -744q4 -14 18 -74h5q5 23 18 72l256 746h234zM845 1546l-286 -328h-172l242 328h216z"/>
<glyph glyph-name="thorn" horiz-adv-x="1234" unicode="þ" d="M381 551v-116q0 -115 71 -195t181 -80q130 0 203.5 102t73.5 283q0 149 -69 233.5t-187 84.5q-123 0 -198 -89t-75 -223zM383 134v-605h-232v1987h232v-661h4q117 193 343 193q197 0 307.5 -137.5t110.5 -368.5q0 -257 -124.5 -411.5t-340.5 -154.5q-194 0 -300 158z"/>
<glyph glyph-name="dotlessi" horiz-adv-x="535" unicode="ı" d="M384 0h-233v1024h233v-1024z"/>
<glyph glyph-name="OE" horiz-adv-x="1915" unicode="Œ" d="M1023 225v985q-144 39 -241 39q-199 0 -322.5 -150t-123.5 -384q0 -233 121.5 -382t318.5 -149q105 0 247 41zM1832 0h-735q-17 0 -141 -14q-100 -10 -186 -10q-316 0 -500.5 201t-184.5 523q0 346 192 552t522 206q92 0 182 -10q114 -14 116 -14h703v-202h-535v-408h496 v-202h-496v-421h567v-201z"/>
<glyph glyph-name="oe" horiz-adv-x="1897" unicode="œ" d="M617 863q-136 0 -215.5 -96t-79.5 -265q0 -158 79.5 -249.5t213.5 -91.5q136 0 210.5 90.5t74.5 256.5q0 171 -74 263t-209 92zM1605 612q-2 125 -59.5 194.5t-157.5 69.5q-102 0 -172.5 -75t-84.5 -189h474zM1830 448h-700q3 -142 85.5 -219t225.5 -77q169 0 308 98 v-187q-134 -87 -353 -87q-272 0 -385 214h-4q-130 -213 -413 -213q-234 0 -371.5 142.5t-137.5 378.5q0 258 145 404t390 146q287 0 393 -208h4q122 208 394 208q198 0 308.5 -136.5t110.5 -371.5v-92z"/>
<glyph glyph-name="Scaron" horiz-adv-x="1115" unicode="Š" d="M111 57v245q33 -30 78.5 -54t96.5 -40.5t102 -25.5t94 -9q150 0 223.5 50t73.5 145q0 51 -24.5 88.5t-68.5 68.5t-103.5 59.5t-127.5 59.5q-73 39 -136 79t-109.5 88.5t-73 109.5t-26.5 143q0 101 45.5 175.5t120 123t169.5 72t194 23.5q225 0 328 -51v-235 q-122 88 -314 88q-53 0 -105.5 -10t-94 -33t-67.5 -59t-26 -87q0 -48 20 -83t58.5 -64t94 -56.5t128.5 -59.5q75 -39 141.5 -82t117 -95t80 -115.5t29.5 -144.5q0 -109 -44 -184t-118.5 -122t-171.5 -68t-205 -21q-36 0 -88.5 5.5t-107.5 16t-104 25.5t-79 34zM891 1881 l-224 -327h-185l-224 327h155l160 -210l161 210h157z"/>
<glyph glyph-name="scaron" horiz-adv-x="883" unicode="š" d="M87 32v215q130 -99 287 -99q210 0 210 124q0 35 -18 59.5t-48.5 43.5t-72 34t-92.5 34q-63 25 -113.5 53t-84 63.5t-50.5 80.5t-17 105q0 74 35 130.5t94 95t134 58t155 19.5q142 0 254 -43v-203q-108 74 -248 74q-44 0 -79.5 -9t-60.5 -25t-39 -38.5t-14 -49.5 q0 -33 14 -56t41.5 -40.5t66 -32t88.5 -31.5q66 -27 118.5 -55t89.5 -63.5t57 -82t20 -110.5q0 -78 -36 -136t-96 -96t-138.5 -56.5t-165.5 -18.5q-168 0 -291 56zM792 1531l-224 -327h-185l-224 327h155l160 -210l161 210h157z"/>
<glyph glyph-name="Ydieresis" horiz-adv-x="1182" unicode="Ÿ" d="M1176 1434l-470 -913v-521h-238v516l-458 918h271l282 -615q5 -11 30 -83h3q9 32 33 83l295 615h252zM386 1565q-52 0 -89 34.5t-37 82.5q0 49 35.5 82t86.5 33t88.5 -33.5t37.5 -81.5q0 -49 -36 -83t-86 -34zM802 1565q-50 0 -86.5 33t-36.5 84q0 49 35 82t85 33 q53 0 89.5 -33.5t36.5 -81.5q0 -49 -35 -83t-88 -34z"/>
<glyph glyph-name="circumflex" horiz-adv-x="771" unicode="ˆ" d="M698 1204h-160l-161 211l-157 -211h-155l224 328h184z"/>
<glyph glyph-name="caron" horiz-adv-x="771" unicode="ˇ" d="M704 1531l-224 -327h-185l-224 327h155l160 -210l161 210h157z"/>
<glyph glyph-name="ring" horiz-adv-x="565" unicode="˚" d="M279 1490q-45 0 -74.5 -30t-29.5 -74q0 -104 104 -104q48 0 79.5 29.5t31.5 74.5t-31.5 74.5t-79.5 29.5zM279 1180q-94 0 -155.5 54t-61.5 142q0 98 63 156t161 58q96 0 157.5 -58.5t61.5 -149.5q0 -87 -65.5 -144.5t-160.5 -57.5z"/>
<glyph glyph-name="tilde" horiz-adv-x="733" unicode="˜" d="M711 1475q0 -116 -51.5 -189.5t-139.5 -73.5q-72 0 -165 48q-78 45 -121 45q-84 0 -84 -111h-115q0 119 51 190.5t143 71.5q68 0 157 -51q72 -44 125 -44q81 0 81 114h119z"/>
<glyph glyph-name="Alpha" horiz-adv-x="1375" unicode="Α" d="M902 559l-199 572q-9 28 -19 90h-4q-9 -57 -20 -90l-197 -572h439zM1355 0h-261l-129 365h-564l-124 -365h-260l537 1434h268z"/>
<glyph glyph-name="Beta" horiz-adv-x="1237" unicode="Β" d="M414 644v-454h203q133 0 205.5 61.5t72.5 169.5q0 223 -309 223h-172zM414 1243v-408h154q124 0 194.5 58.5t70.5 165.5q0 184 -246 184h-173zM177 0v1434h455q208 0 329.5 -91t121.5 -237q0 -122 -69 -212t-191 -128v-4q148 -17 236.5 -109.5t88.5 -240.5 q0 -184 -145 -298t-366 -114h-460z"/>
<glyph glyph-name="Gamma" horiz-adv-x="1003" unicode="Γ" d="M971 1228h-556v-1228h-238v1434h794v-206z"/>
<glyph glyph-name="Delta" horiz-adv-x="1374" unicode="Δ" d="M1029 201l-316 889q-29 80 -33 130h-4q-5 -44 -35 -130l-312 -889h700zM1320 0h-1276v98l505 1336h268l503 -1336v-98z"/>
<glyph glyph-name="Epsilon" horiz-adv-x="1060" unicode="Ε" d="M982 0h-805v1434h773v-202h-535v-406h493v-201h-493v-424h567v-201z"/>
<glyph glyph-name="Zeta" horiz-adv-x="1202" unicode="Ζ" d="M1155 1330l-786 -1129h776v-201h-1109v109l789 1123h-728v202h1058v-104z"/>
<glyph glyph-name="Eta" horiz-adv-x="1506" unicode="Η" d="M1329 0h-239v622h-675v-622h-238v1434h238v-603h675v603h239v-1434z"/>
<glyph glyph-name="Theta" horiz-adv-x="1548" unicode="Θ" d="M1024 618h-499v196h499v-196zM780 1249q-197 0 -320.5 -147.5t-123.5 -385.5q0 -240 120 -385.5t314 -145.5q206 0 324 139t118 389q0 253 -114.5 394.5t-317.5 141.5zM768 -24q-309 0 -496 199.5t-187 524.5q0 343 189 550.5t516 207.5q303 0 488 -200t185 -523 q0 -351 -188.5 -555t-506.5 -204z"/>
<glyph glyph-name="Iota" horiz-adv-x="597" unicode="Ι" d="M421 0h-245v1434h245v-1434z"/>
<glyph glyph-name="Kappa" horiz-adv-x="1251" unicode="Κ" d="M1262 0h-310l-499 656q-28 37 -34 50h-4v-706h-238v1434h238v-674h4q12 22 34 49l481 625h285l-563 -688z"/>
<glyph glyph-name="Lambda" horiz-adv-x="1347" unicode="Λ" d="M1325 0h-261l-363 1100q-16 47 -28 118h-5q-10 -62 -30 -117l-365 -1101h-255l518 1434h281z"/>
<glyph glyph-name="Mu" horiz-adv-x="1893" unicode="Μ" d="M1717 0h-236v928q0 114 14 279h-4q-22 -94 -39 -135l-428 -1072h-164l-429 1064q-18 47 -38 143h-4q8 -86 8 -281v-926h-220v1434h335l377 -955q43 -110 56 -164h5q37 113 60 168l384 951h323v-1434z"/>
<glyph glyph-name="Nu" horiz-adv-x="1571" unicode="Ν" d="M1393 0h-260l-685 1054q-26 40 -43 83h-6q8 -46 8 -197v-940h-230v1434h277l662 -1029q42 -64 54 -88h4q-10 57 -10 193v924h229v-1434z"/>
<glyph glyph-name="Xi" horiz-adv-x="1084" unicode="Ξ" d="M1026 0h-968l1 211h967v-211zM859 621h-634v203h634v-203zM1000 1225h-916v209h916v-209z"/>
<glyph glyph-name="Omicron" horiz-adv-x="1548" unicode="Ο" d="M779 1249q-197 0 -320.5 -147t-123.5 -387q0 -239 120 -385t314 -146q206 0 325 139t119 389q0 257 -115.5 397t-318.5 140zM768 -24q-310 0 -496.5 201t-186.5 523q0 346 190 552t516 206q302 0 486.5 -200t184.5 -523q0 -351 -189 -555t-505 -204z"/>
<glyph glyph-name="Pi" horiz-adv-x="1508" unicode="Π" d="M1334 0h-239v1221h-680v-1221h-238v1434h1157v-1434z"/>
<glyph glyph-name="Rho" horiz-adv-x="1197" unicode="Ρ" d="M414 1238v-524h154q153 0 233 71t80 200q0 253 -294 253h-173zM414 520v-520h-237v1434h435q247 0 383 -115t136 -324t-142 -342t-384 -133h-191z"/>
<glyph glyph-name="Sigma" horiz-adv-x="1106" unicode="Σ" d="M1061 0h-1017v120l464 613l-429 568v133h920v-205h-581l368 -487l-404 -544h679v-198z"/>
<glyph glyph-name="Tau" horiz-adv-x="1130" unicode="Τ" d="M1097 1232h-412v-1232h-238v1232h-411v202h1061v-202z"/>
<glyph glyph-name="Upsilon" horiz-adv-x="1182" unicode="Υ" d="M1176 1434l-470 -913v-521h-238v516l-458 918h271l282 -615q5 -11 30 -83h3q9 32 33 83l295 615h252z"/>
<glyph glyph-name="Phi" horiz-adv-x="1601" unicode="Φ" d="M691 376v737h-35q-154 0 -246 -97.5t-92 -264.5q0 -177 89 -276t247 -99h37zM911 1113v-737h38q156 0 244.5 99t88.5 275q0 166 -90.5 264.5t-244.5 98.5h-36zM911 182v-199h-221v199h-43q-251 0 -405.5 159t-154.5 413q0 247 154 396.5t408 149.5h41v149h221v-149h42 q254 0 407 -150t153 -395q0 -255 -155.5 -414t-402.5 -159h-44z"/>
<glyph glyph-name="Chi" horiz-adv-x="1268" unicode="Χ" d="M1249 0h-285l-294 526q-13 24 -29 68h-4q-9 -22 -30 -68l-303 -526h-287l470 721l-432 713h291l259 -484q25 -48 45 -96h3q29 63 50 100l269 480h268l-442 -711z"/>
<glyph glyph-name="Psi" horiz-adv-x="1635" unicode="Ψ" d="M923 1434v-858h42q317 0 317 333v525h218v-535q0 -232 -146 -379t-389 -147h-42v-373h-211v373h-43q-244 0 -389.5 147t-145.5 379v535h218v-525q0 -333 317 -333h43v858h211z"/>
<glyph glyph-name="alpha" horiz-adv-x="1279" unicode="α" d="M837 522q-32 166 -98.5 254.5t-159.5 88.5q-120 0 -191.5 -106.5t-71.5 -262.5q0 -141 62 -236t166 -95q88 0 160.5 81t120.5 238zM1252 8q-67 -19 -120 -19q-175 0 -236 264h-5q-141 -277 -395 -277q-188 0 -301 143.5t-113 362.5q0 250 129 408t349 158q119 0 212 -66 t141 -186h4l76 228h238l-205 -510q34 -190 72 -258.5t99 -68.5q33 0 57 10z"/>
<glyph glyph-name="beta" horiz-adv-x="1190" unicode="β" d="M526 709v171q113 15 186 92.5t73 174.5q0 200 -189 200q-103 0 -158 -70t-55 -197v-842q127 -77 248 -77q117 0 182.5 65t65.5 182q0 266 -353 301zM383 36v-513h-232v1561q0 206 121.5 327.5t326.5 121.5q196 0 308.5 -96t112.5 -266q0 -117 -76.5 -218.5t-198.5 -139.5 v-4q181 -28 276 -132.5t95 -266.5q0 -193 -127.5 -313.5t-335.5 -120.5q-148 0 -270 60z"/>
<glyph glyph-name="gamma" horiz-adv-x="1107" unicode="γ" d="M621 -71q0 -318 -4 -410h-241q17 170 17 497q-40 215 -159.5 514.5t-242.5 493.5h267q228 -414 314 -821h3q135 227 186.5 387t51.5 313q0 58 -10 121h234q6 -53 6 -85q0 -134 -29.5 -263.5t-91.5 -256t-110 -197.5z"/>
<glyph glyph-name="delta" horiz-adv-x="1222" unicode="δ" d="M629 841q-305 -133 -305 -383q0 -136 78.5 -216.5t209.5 -80.5q134 0 213 84t79 224q0 105 -64 191t-211 181zM1013 1465v-235q-166 113 -336 113q-87 0 -139.5 -29t-52.5 -77q0 -41 46 -86.5t152 -108.5q166 -100 261.5 -178t145 -174.5t49.5 -208.5q0 -233 -146 -369.5 t-394 -136.5q-229 0 -372.5 133.5t-143.5 348.5q0 151 99 277t288 212q-223 147 -223 309q0 134 110 206.5t302 72.5q171 0 354 -69z"/>
<glyph glyph-name="epsilon" horiz-adv-x="920" unicode="ε" d="M852 21q-136 -46 -340 -46q-203 0 -320 81.5t-117 217.5q0 94 66.5 162.5t175.5 89.5v4q-82 18 -143 83t-61 148q0 136 111.5 212t297.5 76q151 0 285 -44v-195q-128 66 -270 66q-188 0 -188 -126q0 -65 70.5 -104.5t179.5 -39.5q73 0 118 4v-172q-73 4 -143 4 q-263 0 -263 -152q0 -65 62 -104t175 -39q164 0 304 70v-196z"/>
<glyph glyph-name="zeta" horiz-adv-x="927" unicode="ζ" d="M841 -309h-251q106 85 106 166q0 68 -59 100.5t-194 50.5q-372 48 -372 445q0 413 563 883v4h-412v176h642v-178q-554 -483 -554 -866q0 -237 267 -282q200 -36 271 -107.5t71 -186.5q0 -113 -78 -205z"/>
<glyph glyph-name="eta" horiz-adv-x="1211" unicode="η" d="M1064 -436h-235v994q0 287 -205 287q-105 0 -173 -76.5t-68 -193.5v-575h-232v694q0 234 -38 330h238q30 -72 30 -169h4q109 193 335 193q344 0 344 -427v-1057z"/>
<glyph glyph-name="theta" horiz-adv-x="1224" unicode="θ" d="M898 679h-575q4 -252 80.5 -384.5t211.5 -132.5q131 0 205 134t78 383zM898 854q-16 494 -284 494q-128 0 -204.5 -134t-85.5 -360h574zM601 -24q-244 0 -380 202.5t-136 569.5q0 381 140 584t403 203q510 0 510 -764q0 -380 -140.5 -587.5t-396.5 -207.5z"/>
<glyph glyph-name="iota" horiz-adv-x="603" unicode="ι" d="M580 12q-77 -27 -150 -27q-269 0 -269 303v736h231v-712q0 -135 96 -135q43 0 92 21v-186z"/>
<glyph glyph-name="kappa" horiz-adv-x="1116" unicode="κ" d="M1099 0h-277l-321 464l-118 -125v-339h-232v1024h232v-464l236 278q132 138 195.5 169t118.5 31q57 0 95 -10v-195q-34 10 -70 10h-1q-74 0 -200 -129l-95 -103z"/>
<glyph glyph-name="lambda" horiz-adv-x="1067" unicode="λ" d="M1041 0h-246l-243 773l-299 -773h-255l458 1016l-57 163q-52 135 -151 135q-58 0 -131 -27v209q79 18 161 18q127 0 205.5 -69t148.5 -263z"/>
<glyph glyph-name="mu" horiz-adv-x="1228" unicode="μ" d="M826 168q-80 -191 -262 -191q-125 0 -176 86h-4v-505h-233v1466h232v-609q0 -108 57 -176.5t151 -68.5q102 0 161 80t59 208v566h234l-1 -676q0 -166 107 -166q27 0 47 7v-183q-75 -17 -135 -17q-97 0 -151.5 43.5t-79.5 135.5h-6z"/>
<glyph glyph-name="nu" horiz-adv-x="1103" unicode="ν" d="M622 0h-218l-408 1024h250l303 -824q224 298 224 572q0 146 -42 252h239q31 -80 31 -212q0 -366 -379 -812z"/>
<glyph glyph-name="xi" horiz-adv-x="941" unicode="ξ" d="M842 -312h-251q106 78 106 162q0 55 -39 88.5t-176 52.5q-197 25 -304 132t-107 279q0 136 86 241.5t244 162.5q-103 28 -158.5 90t-55.5 147q0 100 83.5 179t225.5 114v8q-299 -5 -335 -5v177h654v-175q-186 -29 -297 -105.5t-111 -182.5q0 -63 37.5 -106.5t96.5 -61 t97 -17.5q24 0 76 4q51 3 81 3v-196q-54 3 -126 3q-154 0 -257 -70t-103 -187q0 -195 257 -235q200 -33 277.5 -104t77.5 -191q0 -117 -79 -207z"/>
<glyph glyph-name="omicron" horiz-adv-x="1223" unicode="ο" d="M616 863q-136 0 -215 -95t-79 -262q0 -161 80 -253.5t214 -92.5q137 0 210.5 91t73.5 259q0 169 -73.5 261t-210.5 92zM605 -24q-237 0 -378.5 143.5t-141.5 380.5q0 258 147.5 403t397.5 145q240 0 374 -141t134 -391q0 -245 -144.5 -392.5t-388.5 -147.5z"/>
<glyph glyph-name="pi" horiz-adv-x="1344" unicode="π" d="M1268 846h-222v-533q0 -136 95 -136q35 0 90 21v-186q-73 -27 -146 -27q-272 0 -272 307v554h-325v-580q0 -182 -36 -266h-237q41 83 41 266v580q-122 -3 -242 -87v197q80 68 260 68h994v-178z"/>
<glyph glyph-name="rho" horiz-adv-x="1230" unicode="ρ" d="M378 280q34 -52 104 -85.5t146 -33.5q278 0 278 355q0 152 -78 249t-198 97q-123 0 -187.5 -85.5t-64.5 -245.5v-251zM382 85h-4v-480h-232v912q0 251 123.5 391t362.5 140q233 0 372.5 -148.5t139.5 -375.5q0 -259 -123 -403.5t-344 -144.5q-185 0 -295 109z"/>
<glyph glyph-name="sigma1" horiz-adv-x="968" unicode="ς" d="M844 -312h-249q107 77 107 167q0 65 -51.5 94.5t-162.5 45.5q-197 25 -303 142t-106 297q0 279 156.5 447t400.5 168q135 0 243 -52v-212q-109 78 -233 78q-142 0 -235 -116t-93 -290q0 -62 17.5 -109t46.5 -73t59.5 -39.5t301.5 -95.5q180 -65 180 -251q0 -113 -79 -201 z"/>
<glyph glyph-name="sigma" horiz-adv-x="1213" unicode="σ" d="M737 848h-101q-312 0 -312 -353q0 -152 72 -243t192 -91q116 0 183.5 92.5t67.5 246.5q0 195 -102 348zM1191 848h-242q127 -162 127 -359q0 -227 -132.5 -370t-355.5 -143q-230 0 -366.5 143.5t-136.5 382.5q0 522 533 522h573v-176z"/>
<glyph glyph-name="tau" horiz-adv-x="1055" unicode="τ" d="M1015 849h-377v-544q0 -127 113 -127q53 0 106 20v-184q-81 -29 -169 -29q-282 0 -282 302v562h-124q-128 0 -248 -95v195q86 75 270 75h711v-175z"/>
<glyph glyph-name="upsilon" horiz-adv-x="1195" unicode="υ" d="M165 688q0 82 -19 120t-70 38q-26 0 -56 -7v179q66 18 131 18q138 0 192 -73.5t54 -237.5v-255q0 -302 239 -302q109 0 170 77t61 218q0 296 -134 561h248q120 -248 120 -555q0 -228 -125.5 -361t-343.5 -133q-225 0 -346 119t-121 343v251z"/>
<glyph glyph-name="phi" horiz-adv-x="1480" unicode="φ" d="M842 161h29q130 0 212.5 94t82.5 256q0 158 -61.5 255t-148.5 97q-114 0 -114 -114v-588zM876 -24h-34v-457h-210v457h-28q-237 0 -378 144t-141 390q0 315 192 514h254q-219 -213 -219 -511q0 -166 81.5 -259t212.5 -93h26v501q0 386 319 386q197 0 320 -149t123 -401 q0 -232 -141.5 -377t-376.5 -145z"/>
<glyph glyph-name="chi" horiz-adv-x="1117" unicode="χ" d="M1112 -464q-54 -15 -116 -15q-92 0 -158.5 60.5t-143.5 215.5l-147 339l-301 -601h-251l446 813l-165 367q-62 138 -130 138q-51 0 -93 -19v199q39 15 122 15q89 0 144.5 -38t108.5 -138l139 -325l231 477h253l-375 -685l222 -484q64 -139 132 -139q39 0 82 19v-199z"/>
<glyph glyph-name="psi" horiz-adv-x="1574" unicode="ψ" d="M1435 556q0 -268 -143 -423.5t-377 -155.5h-24v-459h-209v459h-24q-236 0 -378 155t-142 424v468h225v-467q0 -176 85 -283.5t214 -107.5h20v1165h209v-1165h20q128 0 214 107t86 284v467h224v-468z"/>
<glyph glyph-name="theta1" horiz-adv-x="1311" unicode="ϑ" d="M932 912q-12 440 -197 440q-51 0 -82.5 -41.5t-31.5 -108.5q0 -122 84.5 -202.5t226.5 -87.5zM1334 777q-71 -26 -166 -41q-13 -362 -169.5 -561t-423.5 -199q-206 0 -325 109t-119 300q0 81 21 204t21 178q0 96 -78 96q-46 0 -84 -21v183q68 23 134 23q117 0 188 -78 t71 -199q0 -58 -20 -177q-21 -118 -21 -192q0 -111 60.5 -175t164.5 -64q158 0 248 145.5t99 413.5q-240 8 -390.5 141.5t-150.5 331.5q0 147 96 245t245 98q408 0 429 -617q86 13 170 48v-192z"/>
<glyph glyph-name="Upsilon1" horiz-adv-x="1206" unicode="ϒ" d="M1252 1228q-45 21 -90 21q-81 0 -175 -172l-282 -561v-516h-237v516l-459 918h272l277 -591q6 -15 38 -108h3q24 70 46 123l169 349q78 137 150.5 193.5t202.5 56.5q47 0 85 -21v-208z"/>
<glyph glyph-name="omega1" horiz-adv-x="1713" unicode="ϖ" d="M1272 843h-815q-100 -199 -100 -385q0 -136 53 -213t146 -77q198 0 198 308v225h221v-224q0 -308 197 -308q92 0 145 77.5t53 212.5q0 185 -98 384zM1675 843h-182q103 -194 103 -386q0 -223 -112.5 -351t-314.5 -128q-207 0 -307 190h-4q-103 -190 -309 -190 q-196 0 -306.5 128.5t-110.5 351.5q0 187 103 385q-126 0 -244 -88v197q113 72 273 72h1411v-181z"/>
<glyph glyph-name="uni2002" horiz-adv-x="1024" unicode=" "/>
<glyph glyph-name="uni2003" horiz-adv-x="2048" unicode=" "/>
<glyph glyph-name="uni2009" horiz-adv-x="410" unicode=" "/>
<glyph glyph-name="afii61664" horiz-adv-x="0" unicode="‌" d="M36 1750v-2158h-72v2158h72z"/>
<glyph glyph-name="afii301" horiz-adv-x="0" unicode="‍" d="M36 -408h-72v1859l-134 -136l-49 49l171 169l-171 168l49 49l170 -171l170 171l49 -49l-171 -168l171 -169l-49 -49l-134 136v-1859z"/>
<glyph glyph-name="afii299" horiz-adv-x="0" unicode="‎" d="M431 1535l-217 -214l-49 49l137 130h-266v-1908h-72v1979h338l-137 130l49 49z"/>
<glyph glyph-name="endash" horiz-adv-x="1024" unicode="–" d="M1024 474h-1024v171h1024v-171z"/>
<glyph glyph-name="emdash" horiz-adv-x="2048" unicode="—" d="M2048 474h-2048v171h2048v-171z"/>
<glyph glyph-name="quoteleft" horiz-adv-x="525" unicode="‘" d="M417 1462l-109 -445h-207l163 445h153z"/>
<glyph glyph-name="quotesinglbase" horiz-adv-x="525" unicode="‚" d="M405 218l-164 -445h-153l113 445h204z"/>
<glyph glyph-name="quotedblleft" horiz-adv-x="879" unicode="“" d="M417 1462l-109 -445h-207l163 445h153zM771 1462l-112 -445h-203l163 445h152z"/>
<glyph glyph-name="quotedblright" horiz-adv-x="879" unicode="”" d="M427 1462l-163 -445h-153l113 445h203zM781 1462l-162 -445h-154l111 445h205z"/>
<glyph glyph-name="dagger" horiz-adv-x="797" unicode="†" d="M729 977h-251v-733h-163v733h-250v139h250v318h163v-318h251v-139z"/>
<glyph glyph-name="daggerdbl" horiz-adv-x="797" unicode="‡" d="M729 567h-251v-323h-163v323h-250v137h250v276h-250v141h250v311h163v-311h251v-141h-251v-276h251v-137z"/>
<glyph glyph-name="ellipsis" horiz-adv-x="1666" unicode="…" d="M275 -20q-30 0 -56 10.5t-44.5 29t-29 43t-10.5 51.5q0 29 10.5 53.5t29 43t44.5 29t57 10.5q30 0 56.5 -10.5t46 -29t30.5 -43t11 -53.5q0 -28 -11 -52.5t-30.5 -42.5t-46 -28.5t-57.5 -10.5zM831 -20q-30 0 -56 10.5t-45 28.5t-30 42.5t-11 52.5q0 30 11 55t30.5 43 t45.5 28t56 10t56.5 -10.5t46 -29t30.5 -43t11 -53.5q0 -28 -11 -52.5t-30.5 -42.5t-46 -28.5t-57.5 -10.5zM1387 -20q-31 0 -56.5 10.5t-44.5 29t-29.5 43t-10.5 51.5q0 29 11 54t30 43t45 28.5t56 10.5t56.5 -10t46 -28t30.5 -43t11 -55q0 -29 -11 -53.5t-30.5 -42.5 t-46 -28t-57.5 -10z"/>
<glyph glyph-name="perthousand" horiz-adv-x="2521" unicode="‰" d="M1302 582q-83 0 -130.5 -62.5t-47.5 -173.5q0 -106 47 -166.5t127 -60.5q82 0 128 63t46 173q0 109 -45.5 168t-124.5 59zM1288 -21q-152 0 -242 98t-90 260q0 179 96.5 282.5t255.5 103.5q156 0 243 -96t87 -269q0 -172 -97 -275.5t-253 -103.5zM2099 582 q-84 0 -130.5 -63t-46.5 -173q0 -107 46.5 -167t126.5 -60q82 0 128 63t46 173q0 108 -46 167.5t-124 59.5zM2084 -21q-152 0 -242 98t-90 260q0 178 97 282t256 104q157 0 243.5 -95.5t86.5 -269.5q0 -172 -96.5 -275.5t-254.5 -103.5zM1415 1434l-927 -1439h-188l926 1439 h189zM430 1315q-82 0 -129.5 -63t-47.5 -173q0 -108 46.5 -168t127.5 -60t127 62.5t46 173.5q0 108 -45.5 168t-124.5 60zM416 711q-152 0 -242 98t-90 261q0 179 95.5 282t257.5 103q157 0 243.5 -95.5t86.5 -267.5q0 -173 -97 -277t-254 -104z"/>
<glyph glyph-name="minute" horiz-adv-x="528" unicode="′" d="M407 1442l-113 -445h-154l76 445h191z"/>
<glyph glyph-name="second" horiz-adv-x="879" unicode="″" d="M417 1442l-114 -445h-154l76 445h192zM751 1442l-115 -446h-154l76 446h193z"/>
<glyph glyph-name="guilsinglleft" horiz-adv-x="673" unicode="‹" d="M599 200h-212l-313 336l313 344h213l-318 -344z"/>
<glyph glyph-name="guilsinglright" horiz-adv-x="673" unicode="›" d="M600 538l-313 -338h-213l318 338l-317 342h212z"/>
<glyph glyph-name="uni203E" horiz-adv-x="850" unicode="‾" d="M850 1396h-850v120h850v-120z"/>
<glyph glyph-name="fraction" horiz-adv-x="518" unicode="⁄" d="M801 1434l-875 -1434h-189l873 1434h191z"/>
<glyph glyph-name="fraction" horiz-adv-x="518" unicode="∕" d="M801 1434l-875 -1434h-189l873 1434h191z"/>
<glyph glyph-name="Euro" horiz-adv-x="1137" unicode="€" d="M1050 50q-138 -74 -294 -74q-445 0 -530 492h-122v163h103q-4 28 -4 69q0 42 6 96h-105v161h127q53 235 201.5 368t360.5 133q144 0 257 -56v-201q-111 78 -250 78q-120 0 -213 -87.5t-130 -234.5h465v-161h-491q-4 -47 -4 -91q0 -38 3 -74h492v-163h-470 q69 -314 337 -314q125 0 261 87v-191z"/>
<glyph glyph-name="trademark" horiz-adv-x="1581" unicode="™" d="M593 1325h-196v-553h-130v553h-191v109h517v-109zM1396 772h-127v463h-4l-193 -463h-93l-184 463h-4v-463h-123v662h168l194 -477h4l201 477h161v-662z"/>
<glyph glyph-name="arrowleft" horiz-adv-x="1767" unicode="←" d="M1536 530h-1190l123 -118v-148l-319 332v4l319 332v-148l-125 -120h1192v-134z"/>
<glyph glyph-name="arrowup" horiz-adv-x="967" unicode="↑" d="M416 -12v1188l-119 -121h-147l331 319h4l332 -319h-147l-121 123v-1190h-133z"/>
<glyph glyph-name="arrowright" horiz-adv-x="1767" unicode="→" d="M231 664h1190l-123 120v148l320 -332v-4l-320 -332v148l121 118h-1188v134z"/>
<glyph glyph-name="arrowdown" horiz-adv-x="967" unicode="↓" d="M549 1376v-1192l121 125h147l-332 -319h-4l-331 319h147l119 -123v1190h133z"/>
<glyph glyph-name="partialdiff" horiz-adv-x="1135" unicode="∂" d="M820 665q-49 190 -196 190q-139 0 -231.5 -139.5t-92.5 -325.5q0 -107 48.5 -168.5t131.5 -61.5q130 0 223.5 139.5t116.5 365.5zM845 863h4q2 37 2 72q0 373 -260 373q-128 0 -256 -76l50 199q124 63 259 63q220 0 329 -134.5t109 -431.5q0 -220 -69.5 -458.5t-214 -366 t-341.5 -127.5q-179 0 -286.5 108t-107.5 291q0 266 147 461t373 195q178 0 262 -168z"/>
<glyph glyph-name="product" horiz-adv-x="1578" unicode="∏" d="M1413 -470h-238v1694h-760v-1694h-238v1904h1236v-1904z"/>
<glyph glyph-name="summation" horiz-adv-x="1287" unicode="∑" d="M1237 -469h-1185v122l643 839l-612 809v133h1117v-203h-778l552 -733l-581 -765h844v-202z"/>
<glyph glyph-name="minus" d="M1190 510h-955v165h955v-165z" unicode="−"/>
<glyph glyph-name="radical" horiz-adv-x="1331" unicode="√" d="M1151 1516l-398 -1516h-150l-319 741h-176v141h303l260 -619l325 1253h155z"/>
<glyph glyph-name="infinity" horiz-adv-x="1669" unicode="∞" d="M754 597q-124 231 -300 231q-92 0 -147 -65.5t-55 -168.5q0 -98 60.5 -162.5t155.5 -64.5q157 0 286 230zM919 593q124 -230 301 -230q90 0 144.5 63.5t54.5 167.5q0 99 -56.5 164t-142.5 65q-163 0 -301 -230zM836 462q-168 -260 -382 -260q-167 0 -272 108.5 t-105 284.5q0 162 109.5 278t267.5 116q234 0 383 -263q165 259 383 259q167 0 271.5 -108.5t104.5 -283.5q0 -162 -108.5 -278.5t-267.5 -116.5q-226 0 -384 264z"/>
<glyph glyph-name="intersection" horiz-adv-x="1437" unicode="∩" d="M712 938q-65 0 -122.5 -22t-101 -68t-68.5 -115.5t-25 -164.5v-462h-165v463q0 138 42.5 238.5t111.5 166t157 97.5t178 32q93 0 181 -32t156 -97.5t109.5 -166t41.5 -238.5v-463h-165v462q0 92 -27 161.5t-72.5 116t-105.5 69.5t-125 23z"/>
<glyph glyph-name="therefore" horiz-adv-x="1426" unicode="∴" d="M1082 90q-60 0 -102 39.5t-42 94.5q0 56 42 96t102 40q61 0 103.5 -40t42.5 -96q0 -55 -42.5 -94.5t-103.5 -39.5zM341 90q-60 0 -102 39.5t-42 94.5q0 56 42 96t102 40q61 0 103.5 -40t42.5 -96q0 -55 -42.5 -94.5t-103.5 -39.5zM711 835q-60 0 -102 39.5t-42 94.5 q0 56 42 96t102 40q61 0 103.5 -40t42.5 -96q0 -55 -42.5 -94.5t-103.5 -39.5z"/>
<glyph glyph-name="approxequal" horiz-adv-x="1424" unicode="≈" d="M1221 549q-7 -159 -84.5 -247t-210.5 -88q-109 0 -266 102q-94 63 -159 63q-128 0 -133 -168h-166q5 155 84 245t213 90q105 0 232 -83q130 -85 194 -85q58 0 93 48t37 123h166zM1221 976q-7 -158 -84.5 -245.5t-210.5 -87.5q-108 0 -262 101q-96 64 -157 64 q-133 0 -139 -168h-166q5 156 84 244.5t213 88.5q105 0 232 -82q130 -84 194 -84q58 0 93 46.5t37 122.5h166z"/>
<glyph glyph-name="notequal" d="M1190 295h-544l-152 -295h-187l152 295h-224v164h311l136 265h-447v165h533l152 299h187l-152 -299h235v-165h-321l-138 -265h459v-164z" unicode="≠"/>
<glyph glyph-name="equivalence" d="M1190 509h-955v165h955v-165zM1190 936h-955v165h955v-165zM1190 80h-955v164h955v-164z" unicode="≡"/>
<glyph glyph-name="lessequal" horiz-adv-x="1424" unicode="≤" d="M1189 0h-954v164h954v-164zM1160 251l-894 419v110l894 452v-189l-654 -314v-4l654 -283v-191z"/>
<glyph glyph-name="greaterequal" horiz-adv-x="1424" unicode="≥" d="M1189 0h-954v164h954v-164zM1160 671l-894 -419v191l654 280v5l-654 316v189l894 -452v-110z"/>
<glyph glyph-name="lozenge" horiz-adv-x="1199" unicode="◊" d="M929 717l-330 528l-330 -528l330 -529zM1106 717l-462 -717h-93l-459 715l459 719h93z"/>
<glyph glyph-name="spade" horiz-adv-x="1402" unicode="♠" d="M705 1458q44 -52 105.5 -105.5t128.5 -112.5t133 -124t118.5 -138.5t85 -156.5t32.5 -178q0 -82 -26 -145t-68.5 -105.5t-97 -64.5t-111.5 -22q-55 0 -104.5 14t-88.5 46q4 -34 14.5 -72t29.5 -76t46 -75t64 -68v-75h-530v75q37 31 64 68t46 75t29.5 76t14.5 72 q-39 -32 -88.5 -46t-104.5 -14q-57 0 -111.5 22t-97 64.5t-68.5 105.5t-26 145q0 95 32.5 178t85 156.5t118.5 138.5t133 124t128.5 113t105.5 105h8z"/>
<glyph glyph-name="club" horiz-adv-x="1402" unicode="♣" d="M436 0v75q28 23 55 58t48 81t34 103t13 125q-19 -13 -37.5 -23t-39.5 -17.5t-45.5 -11.5t-55.5 -4q-65 0 -122.5 22t-100 62.5t-67 98.5t-24.5 130q0 65 22.5 121.5t64 99t99 67.5t126.5 26q-16 52 -16 107q0 64 22.5 121.5t63.5 100t98 67.5t127 25t127 -25t98 -67.5 t63.5 -100t22.5 -121.5q0 -55 -16 -107q69 -1 126.5 -26t99 -67.5t64 -99t22.5 -121.5q0 -72 -24.5 -130t-67 -98.5t-100 -62.5t-122.5 -22q-31 0 -55.5 4t-45.5 11.5t-39.5 17.5t-37.5 23q0 -68 12.5 -125t33.5 -103t48 -81t56 -58v-75h-530z"/>
<glyph glyph-name="heart" horiz-adv-x="1402" unicode="♥" d="M1002 1315q59 0 114.5 -21.5t98 -65t68 -109.5t25.5 -156q0 -100 -32 -186.5t-84 -162.5t-117.5 -142.5t-132.5 -127t-129.5 -116t-107.5 -108.5h-9q-45 53 -107 108.5t-129 116t-132.5 127t-117.5 142.5t-84 162.5t-32 186.5q0 90 25.5 156t68 109.5t98 65t114.5 21.5 q57 0 102.5 -15t82 -40.5t64 -58t47.5 -66.5h9q20 34 48 66.5t64.5 58t82 40.5t102.5 15z"/>
<glyph glyph-name="diamond" horiz-adv-x="1402" unicode="♦" d="M205 716l496 718l497 -718l-497 -716z"/>
<glyph glyph-name="one.frac" d="M326 586v673q-29 -25 -62 -47t-63.5 -39.5t-56.5 -29.5t-41 -17v149q42 15 85.5 36t84.5 44.5t77 49t64 50.5h81v-869h-169z" horiz-adv-x="759"/>
<glyph glyph-name="two.frac" d="M686 584h-577v88q0 61 28.5 109t71 88t92 75.5t92 72t71 77t28.5 91.5t-33.5 83t-88.5 32q-117 0 -214 -102v179q88 77 242 77q63 0 113.5 -17.5t86 -49.5t54.5 -78t19 -104q0 -69 -27.5 -127t-68 -105.5t-88.5 -85t-88.5 -66t-68 -49t-27.5 -34.5v-7h383v-147z" horiz-adv-x="785"/>
<glyph glyph-name="three.frac" d="M130 616v160q104 -73 219 -73q75 0 118.5 33t43.5 89q0 124 -215 124h-82v140h78q192 0 192 117q0 106 -132 106q-97 0 -192 -67v155q92 54 225 54q122 0 194 -60.5t72 -157.5q0 -147 -144 -200v-4q174 -42 174 -200q0 -119 -90 -194t-241 -75q-140 0 -220 53z" horiz-adv-x="785"/>
<glyph glyph-name="four.frac" d="M450 905v352q-16 -32 -44 -79.5t-61 -97.5t-67.5 -97t-62.5 -78h235zM729 775h-110v-191h-169v191h-394v124q49 57 94.5 115.5t89.5 123t87.5 137.5t89.5 159h202v-529h110v-130z" horiz-adv-x="781"/>
</font>
</defs>
</svg>
